<?xml version="1.0" encoding="UTF-8"?>
<svg xmlns="http://www.w3.org/2000/svg" width="760" height="260" viewBox="0 0 760 260">
<rect x="0" y="0" width="760" height="260" fill="#f3f6f9"/>
<rect x="30" y="35" width="700" height="190" rx="16" ry="16" fill="#205f2f" stroke="#193a20" stroke-width="4"/>
<rect x="320" y="80" width="140" height="100" rx="8" ry="8" fill="#2b2f35" stroke="#111" stroke-width="3"/>
<text x="390" y="135" text-anchor="middle" fill="#d8dde3" font-family="Arial, sans-serif" font-size="18">CM</text>
<text x="390" y="158" text-anchor="middle" fill="#d8dde3" font-family="Arial, sans-serif" font-size="14">MODULE</text>
<rect x="52" y="42" width="8" height="16" fill="#d0b13f"/>
<rect x="52" y="202" width="8" height="16" fill="#d0b13f"/>
<rect x="65" y="42" width="8" height="16" fill="#d0b13f"/>
<rect x="65" y="202" width="8" height="16" fill="#d0b13f"/>
<rect x="78" y="42" width="8" height="16" fill="#d0b13f"/>
<rect x="78" y="202" width="8" height="16" fill="#d0b13f"/>
<rect x="91" y="42" width="8" height="16" fill="#d0b13f"/>
<rect x="91" y="202" width="8" height="16" fill="#d0b13f"/>
<rect x="104" y="42" width="8" height="16" fill="#d0b13f"/>
<rect x="104" y="202" width="8" height="16" fill="#d0b13f"/>
<rect x="117" y="42" width="8" height="16" fill="#d0b13f"/>
<rect x="117" y="202" width="8" height="16" fill="#d0b13f"/>
<rect x="130" y="42" width="8" height="16" fill="#d0b13f"/>
<rect x="130" y="202" width="8" height="16" fill="#d0b13f"/>
<rect x="143" y="42" width="8" height="16" fill="#d0b13f"/>
<rect x="143" y="202" width="8" height="16" fill="#d0b13f"/>
<rect x="156" y="42" width="8" height="16" fill="#d0b13f"/>
<rect x="156" y="202" width="8" height="16" fill="#d0b13f"/>
<rect x="169" y="42" width="8" height="16" fill="#d0b13f"/>
<rect x="169" y="202" width="8" height="16" fill="#d0b13f"/>
<rect x="182" y="42" width="8" height="16" fill="#d0b13f"/>
<rect x="182" y="202" width="8" height="16" fill="#d0b13f"/>
<rect x="195" y="42" width="8" height="16" fill="#d0b13f"/>
<rect x="195" y="202" width="8" height="16" fill="#d0b13f"/>
<rect x="208" y="42" width="8" height="16" fill="#d0b13f"/>
<rect x="208" y="202" width="8" height="16" fill="#d0b13f"/>
<rect x="221" y="42" width="8" height="16" fill="#d0b13f"/>
<rect x="221" y="202" width="8" height="16" fill="#d0b13f"/>
<rect x="234" y="42" width="8" height="16" fill="#d0b13f"/>
<rect x="234" y="202" width="8" height="16" fill="#d0b13f"/>
<rect x="247" y="42" width="8" height="16" fill="#d0b13f"/>
<rect x="247" y="202" width="8" height="16" fill="#d0b13f"/>
<rect x="260" y="42" width="8" height="16" fill="#d0b13f"/>
<rect x="260" y="202" width="8" height="16" fill="#d0b13f"/>
<rect x="273" y="42" width="8" height="16" fill="#d0b13f"/>
<rect x="273" y="202" width="8" height="16" fill="#d0b13f"/>
<rect x="286" y="42" width="8" height="16" fill="#d0b13f"/>
<rect x="286" y="202" width="8" height="16" fill="#d0b13f"/>
<rect x="299" y="42" width="8" height="16" fill="#d0b13f"/>
<rect x="299" y="202" width="8" height="16" fill="#d0b13f"/>
<rect x="312" y="42" width="8" height="16" fill="#d0b13f"/>
<rect x="312" y="202" width="8" height="16" fill="#d0b13f"/>
<rect x="325" y="42" width="8" height="16" fill="#d0b13f"/>
<rect x="325" y="202" width="8" height="16" fill="#d0b13f"/>
<rect x="338" y="42" width="8" height="16" fill="#d0b13f"/>
<rect x="338" y="202" width="8" height="16" fill="#d0b13f"/>
<rect x="351" y="42" width="8" height="16" fill="#d0b13f"/>
<rect x="351" y="202" width="8" height="16" fill="#d0b13f"/>
<rect x="364" y="42" width="8" height="16" fill="#d0b13f"/>
<rect x="364" y="202" width="8" height="16" fill="#d0b13f"/>
<rect x="377" y="42" width="8" height="16" fill="#d0b13f"/>
<rect x="377" y="202" width="8" height="16" fill="#d0b13f"/>
<rect x="390" y="42" width="8" height="16" fill="#d0b13f"/>
<rect x="390" y="202" width="8" height="16" fill="#d0b13f"/>
<rect x="403" y="42" width="8" height="16" fill="#d0b13f"/>
<rect x="403" y="202" width="8" height="16" fill="#d0b13f"/>
<rect x="416" y="42" width="8" height="16" fill="#d0b13f"/>
<rect x="416" y="202" width="8" height="16" fill="#d0b13f"/>
<rect x="429" y="42" width="8" height="16" fill="#d0b13f"/>
<rect x="429" y="202" width="8" height="16" fill="#d0b13f"/>
<rect x="442" y="42" width="8" height="16" fill="#d0b13f"/>
<rect x="442" y="202" width="8" height="16" fill="#d0b13f"/>
<rect x="455" y="42" width="8" height="16" fill="#d0b13f"/>
<rect x="455" y="202" width="8" height="16" fill="#d0b13f"/>
<rect x="468" y="42" width="8" height="16" fill="#d0b13f"/>
<rect x="468" y="202" width="8" height="16" fill="#d0b13f"/>
<rect x="481" y="42" width="8" height="16" fill="#d0b13f"/>
<rect x="481" y="202" width="8" height="16" fill="#d0b13f"/>
<rect x="494" y="42" width="8" height="16" fill="#d0b13f"/>
<rect x="494" y="202" width="8" height="16" fill="#d0b13f"/>
<rect x="507" y="42" width="8" height="16" fill="#d0b13f"/>
<rect x="507" y="202" width="8" height="16" fill="#d0b13f"/>
<rect x="520" y="42" width="8" height="16" fill="#d0b13f"/>
<rect x="520" y="202" width="8" height="16" fill="#d0b13f"/>
<rect x="533" y="42" width="8" height="16" fill="#d0b13f"/>
<rect x="533" y="202" width="8" height="16" fill="#d0b13f"/>
<rect x="546" y="42" width="8" height="16" fill="#d0b13f"/>
<rect x="546" y="202" width="8" height="16" fill="#d0b13f"/>
<rect x="559" y="42" width="8" height="16" fill="#d0b13f"/>
<rect x="559" y="202" width="8" height="16" fill="#d0b13f"/>
<rect x="572" y="42" width="8" height="16" fill="#d0b13f"/>
<rect x="572" y="202" width="8" height="16" fill="#d0b13f"/>
<rect x="585" y="42" width="8" height="16" fill="#d0b13f"/>
<rect x="585" y="202" width="8" height="16" fill="#d0b13f"/>
<rect x="598" y="42" width="8" height="16" fill="#d0b13f"/>
<rect x="598" y="202" width="8" height="16" fill="#d0b13f"/>
<rect x="611" y="42" width="8" height="16" fill="#d0b13f"/>
<rect x="611" y="202" width="8" height="16" fill="#d0b13f"/>
<rect x="624" y="42" width="8" height="16" fill="#d0b13f"/>
<rect x="624" y="202" width="8" height="16" fill="#d0b13f"/>
<rect x="637" y="42" width="8" height="16" fill="#d0b13f"/>
<rect x="637" y="202" width="8" height="16" fill="#d0b13f"/>
<rect x="650" y="42" width="8" height="16" fill="#d0b13f"/>
<rect x="650" y="202" width="8" height="16" fill="#d0b13f"/>
<rect x="663" y="42" width="8" height="16" fill="#d0b13f"/>
<rect x="663" y="202" width="8" height="16" fill="#d0b13f"/>
<rect x="676" y="42" width="8" height="16" fill="#d0b13f"/>
<rect x="676" y="202" width="8" height="16" fill="#d0b13f"/>
<rect x="689" y="42" width="8" height="16" fill="#d0b13f"/>
<rect x="689" y="202" width="8" height="16" fill="#d0b13f"/>
<circle cx="46" cy="52" r="3.6" fill="#d0b13f"/>
<circle cx="714" cy="52" r="3.6" fill="#d0b13f"/>
<circle cx="46" cy="64" r="3.6" fill="#d0b13f"/>
<circle cx="714" cy="64" r="3.6" fill="#d0b13f"/>
<circle cx="46" cy="76" r="3.6" fill="#d0b13f"/>
<circle cx="714" cy="76" r="3.6" fill="#d0b13f"/>
<circle cx="46" cy="88" r="3.6" fill="#d0b13f"/>
<circle cx="714" cy="88" r="3.6" fill="#d0b13f"/>
<circle cx="46" cy="100" r="3.6" fill="#d0b13f"/>
<circle cx="714" cy="100" r="3.6" fill="#d0b13f"/>
<circle cx="46" cy="112" r="3.6" fill="#d0b13f"/>
<circle cx="714" cy="112" r="3.6" fill="#d0b13f"/>
<circle cx="46" cy="124" r="3.6" fill="#d0b13f"/>
<circle cx="714" cy="124" r="3.6" fill="#d0b13f"/>
<circle cx="46" cy="136" r="3.6" fill="#d0b13f"/>
<circle cx="714" cy="136" r="3.6" fill="#d0b13f"/>
<circle cx="46" cy="148" r="3.6" fill="#d0b13f"/>
<circle cx="714" cy="148" r="3.6" fill="#d0b13f"/>
<circle cx="46" cy="160" r="3.6" fill="#d0b13f"/>
<circle cx="714" cy="160" r="3.6" fill="#d0b13f"/>
<circle cx="46" cy="172" r="3.6" fill="#d0b13f"/>
<circle cx="714" cy="172" r="3.6" fill="#d0b13f"/>
<circle cx="46" cy="184" r="3.6" fill="#d0b13f"/>
<circle cx="714" cy="184" r="3.6" fill="#d0b13f"/>
<circle cx="46" cy="196" r="3.6" fill="#d0b13f"/>
<circle cx="714" cy="196" r="3.6" fill="#d0b13f"/>
<circle cx="46" cy="208" r="3.6" fill="#d0b13f"/>
<circle cx="714" cy="208" r="3.6" fill="#d0b13f"/>
<text x="380" y="66" text-anchor="middle" fill="#e8f2e8" font-family="Arial, sans-serif" font-size="20">Raspberry Pi Compute Module</text>
<text x="380" y="238" text-anchor="middle" fill="#d9e9d9" font-family="Arial, sans-serif" font-size="12">Representative top-down board illustration for WipperSnapper</text>
<rect x="96" y="96" width="126" height="48" rx="6" ry="6" fill="#2f7a43" stroke="#1d4c29" stroke-width="2"/>
<text x="159" y="124" text-anchor="middle" fill="#ebf6ee" font-family="Arial, sans-serif" font-size="14">GPIO 2-11</text>
<rect x="252" y="96" width="126" height="48" rx="6" ry="6" fill="#2f7a43" stroke="#1d4c29" stroke-width="2"/>
<text x="315" y="124" text-anchor="middle" fill="#ebf6ee" font-family="Arial, sans-serif" font-size="14">GPIO 12-21</text>
<rect x="408" y="96" width="126" height="48" rx="6" ry="6" fill="#2f7a43" stroke="#1d4c29" stroke-width="2"/>
<text x="471" y="124" text-anchor="middle" fill="#ebf6ee" font-family="Arial, sans-serif" font-size="14">GPIO 22-31</text>
<rect x="564" y="96" width="126" height="48" rx="6" ry="6" fill="#2f7a43" stroke="#1d4c29" stroke-width="2"/>
<text x="627" y="124" text-anchor="middle" fill="#ebf6ee" font-family="Arial, sans-serif" font-size="14">GPIO 32-45</text>
</svg>