<?xml version="1.0" encoding="UTF-8"?><svg id="Layer_1" xmlns="http://www.w3.org/2000/svg" viewBox="0 0 189 145"><defs><style>.cls-1{fill:#465156;}.cls-2{fill:#dedd00;}.cls-3,.cls-4{fill:#fff;}.cls-5{fill:#008184;}.cls-4{fill-rule:evenodd;}.cls-6{opacity:.2;}.cls-7{fill:#778186;}.cls-8{fill:#374146;}</style></defs><path class="cls-1" d="M141.77,4.57c4.45,0,8.05,3.6,8.05,8.05v111.08c0,1.03-.39,2.02-1.08,2.77l-4.63,5.03c-.77.84-1.87,1.32-3.01,1.32h-13.63c-4.45,0-8.05-3.61-8.05-8.05V12.62c0-4.45,3.61-8.05,8.05-8.05h14.3Z"/><path class="cls-8" d="M141.83,129.51c0,.22-.17.39-.39.39h-11.69c-.21,0-.39-.17-.39-.39v-1.95h12.47v1.95ZM141.83,125.22c.65,0,1.17.52,1.17,1.17s-.52,1.17-1.17,1.17h-12.47c-.65,0-1.17-.52-1.17-1.17s.52-1.17,1.17-1.17h12.47Z"/><path class="cls-4" d="M127.91,7.7h13.42c3.08,0,5.59,2.52,5.59,5.59v102.33c0,3.08-2.52,5.59-5.59,5.59h-13.42c-3.07,0-5.59-2.52-5.59-5.59V13.29c0-3.07,2.52-5.59,5.59-5.59Z"/><path class="cls-5" d="M131.56,12.59l6.29,1.97v1.75l-6.29,2v-1.65l1.29-.35v-1.81l-1.29-.32v-1.6ZM136.36,15.38l-2.3-.57v1.19l2.3-.62Z"/><path class="cls-5" d="M137.85,19.32v2.54c0,1.74-.89,2.4-2.1,2.4-.86,0-1.52-.35-1.89-1.04l-2.3,1.23v-1.84l1.99-.95v-.78h-1.99v-1.56h6.29ZM135.74,22.6c.56,0,.84-.2.84-.93v-.79h-1.78v.82c0,.54.24.9.94.9Z"/><path class="cls-5" d="M137.85,25.51v2.06c0,2.35-1.11,3.14-3.09,3.14-1.49,0-3.2-.45-3.2-3.13v-2.07h6.29ZM136.58,27.07h-3.74v.59c0,1.29.78,1.38,1.85,1.38,1.23,0,1.89-.13,1.89-1.52v-.46Z"/><path class="cls-5" d="M137.85,35.31v1.5h-4.13c-1.86,0-2.26-1.42-2.26-2.54s.36-2.45,2.26-2.45h4.12v1.56h-3.83c-1.04,0-1.29.37-1.29.96,0,.71.32.97,1.28.97h3.84Z"/><path class="cls-5" d="M132.85,38.2v1.63h3.72v-1.63h1.29v4.82h-1.29v-1.64h-3.72v1.64h-1.29v-4.82h1.29Z"/><path class="cls-5" d="M131.56,45.78v-1.47h6.29v1.69l-3.77,2.04h3.77v1.45h-6.29v-1.58l4.03-2.15h-4.03Z"/><path class="cls-5" d="M134.71,55.86c-1.82,0-3.24-.67-3.24-2.69,0-1.81,1.09-2.64,3.17-2.64,1.9,0,3.3.73,3.3,2.63,0,1.79-.83,2.7-3.23,2.7ZM134.71,54.21c1.54,0,1.96-.13,1.96-1.05,0-.83-.49-.98-2.03-.98-1.27,0-1.91.09-1.91.99s.52,1.04,1.97,1.04Z"/><path class="cls-5" d="M137.11,56.91c.77,0,1.39.61,1.39,1.35s-.62,1.37-1.39,1.37c-.81,0-1.38-.61-1.38-1.37s.62-1.35,1.38-1.35ZM137.11,59.37c.6,0,1.16-.45,1.16-1.11s-.47-1.1-1.16-1.1c-.72,0-1.16.53-1.16,1.1,0,.66.45,1.11,1.16,1.11ZM137.96,57.57v.73c0,.55-.24.75-.57.75-.21,0-.39-.1-.49-.29l-.63.29v-.57l.53-.18v-.2h-.53v-.52h1.69ZM137.16,58.25c0,.15.06.25.23.25.14,0,.21-.05.21-.25v-.16h-.44v.17Z"/><path class="cls-5" d="M131.56,67.85v-.74h6.29v.86l-5.04,3.07h5.04v.74h-6.29v-.8l5.14-3.12h-5.14Z"/><path class="cls-5" d="M137.85,77.92h-.68v-3.48h-2.05v3.15h-.67v-3.15h-2.21v3.48h-.69v-4.27h6.29v4.27Z"/><path class="cls-5" d="M136.29,80.01c.98,0,1.65.93,1.65,2.18,0,.71-.19,1.39-.43,1.79l-.76-.24c.31-.39.51-.92.51-1.52,0-.84-.28-1.38-.91-1.38-1.47,0-.87,3.36-3.14,3.36-1.2,0-1.75-1.06-1.75-2.28,0-.84.26-1.57.54-2.03l.76.27c-.41.48-.65,1.11-.65,1.84,0,.77.3,1.37,1,1.37,1.75,0,1.06-3.35,3.17-3.35Z"/><path class="cls-5" d="M136.29,86.29c.98,0,1.65.93,1.65,2.18,0,.71-.19,1.39-.43,1.79l-.76-.24c.31-.39.51-.92.51-1.52,0-.84-.28-1.38-.91-1.38-1.47,0-.87,3.36-3.14,3.36-1.2,0-1.75-1.06-1.75-2.28,0-.84.26-1.57.54-2.03l.76.27c-.41.48-.65,1.11-.65,1.84,0,.77.3,1.37,1,1.37,1.75,0,1.06-3.35,3.17-3.35Z"/><path class="cls-5" d="M134.7,97.23c-1.87,0-3.23-.9-3.23-2.66,0-1.86,1.24-2.6,3.22-2.6s3.25.84,3.25,2.64-1.13,2.62-3.24,2.62ZM134.7,96.4c1.64,0,2.56-.4,2.56-1.79s-.87-1.81-2.57-1.81c-1.6,0-2.54.35-2.54,1.77s1.03,1.83,2.55,1.83Z"/><path class="cls-5" d="M131.56,105.59v-.74h6.29v.86l-5.04,3.07h5.04v.74h-6.29v-.8l5.14-3.12h-5.14Z"/><path class="cls-5" d="M132.23,111.37v1.77h4.8l-.32-1.61h.63l.59,2.37h-5.7v1.86h-.67v-4.39h.67Z"/><path class="cls-7" d="M96.78,4.57h-50.72c-4.63,0-8.39,3.76-8.39,8.39v118.22c0,4.64,3.76,8.39,8.39,8.39h50.72c4.63,0,8.39-3.76,8.39-8.39V12.96c0-4.63-3.76-8.39-8.39-8.39Z"/><path d="M101.81,12.96v118.22c0,2.79-2.26,5.04-5.04,5.04h-50.7c-2.78,0-5.04-2.25-5.04-5.04V12.96c0-.98.29-1.91.78-2.69.88-1.42,2.46-2.35,4.26-2.35h50.7c2.78,0,5.04,2.25,5.04,5.04Z"/><path class="cls-8" d="M92.6,22.54h-42.36v70.62h42.36V22.54Z"/><path class="cls-2" d="M85.52,106.8h-28.19c-1.77,0-3.2,1.43-3.2,3.2s1.43,3.2,3.2,3.2h28.19c1.77,0,3.2-1.43,3.2-3.2s-1.43-3.2-3.2-3.2Z"/><g class="cls-6"><path class="cls-3" d="M101.8,58.5v20.2L41.82,10.27c.88-1.42,2.46-2.35,4.26-2.35h11.38l44.35,50.58Z"/><path class="cls-3" d="M101.81,12.96v8.17l-11.58-13.21h6.54c2.78,0,5.04,2.25,5.04,5.04Z"/><path class="cls-3" d="M101.81,84.71v9.37L41.03,24.76v-9.37l60.78,69.31Z"/><path class="cls-3" d="M41.03,81.15l48.29,55.07h2.22l-50.51-57.61v2.54Z"/><path class="cls-3" d="M53.96,136.22h-7.89c-2.78,0-5.04-2.25-5.04-5.04v-9.7l12.93,14.74Z"/></g></svg>