<?xml version='1.0' encoding='utf-8'?>
<!-- Generator: Adobe Illustrator 24.2.3, SVG Export Plug-In . SVG Version: 6.00 Build 0)  -->
<svg xmlns="http://www.w3.org/2000/svg" y="0px" gorn="0"  xmlns:xml="http://www.w3.org/XML/1998/namespace" id="svg1714" x="0px" xml:space="preserve" height="2.18188in" enable-background="new 0 0 230.9162 157.0953" viewBox="0 0 230.9162 157.0953" version="1.1" width="3.20717in">
    <desc >
        <referenceFile >Adafruit MagTag 2.9in Rev C1_breadboard.svg</referenceFile>
    </desc>
    <desc  id="desc2">Fritzing breadboard generated by brd2svg</desc>
    <g  transform="translate(4.1164498)">
        <g >
            <g gorn="0.2.0.0"  id="g14">
                <g gorn="0.2.0.0.0"  id="g12"/>
            </g>
        </g>
    </g>
    <g  transform="translate(4.1164498)">
        <g >
            <g gorn="0.3.0.0"  id="g22">
                <g gorn="0.3.0.0.0"  id="g20"/>
            </g>
        </g>
    </g>
    <g  transform="translate(4.1164498)">
        <g >
            <g gorn="0.4.0.0"  id="g30">
                <g gorn="0.4.0.0.0"  id="g28"/>
            </g>
        </g>
    </g>
    <g  transform="translate(4.1164498)">
        <g >
            <g gorn="0.5.0.0"  id="g38">
                <g gorn="0.5.0.0.0"  id="g36"/>
            </g>
        </g>
    </g>
    <g  transform="translate(4.1164498)">
        <g >
            <g gorn="0.6.0.0"  id="g46">
                <g gorn="0.6.0.0.0"  id="g44"/>
            </g>
        </g>
    </g>
    <g  transform="translate(4.1164498)">
        <g >
            <g gorn="0.7.0.0"  id="g54">
                <g gorn="0.7.0.0.0"  id="g52"/>
            </g>
        </g>
    </g>
    <g  transform="translate(4.1164498)">
        <g >
            <g gorn="0.8.0.0"  id="g62">
                <g gorn="0.8.0.0.0"  id="g60"/>
            </g>
        </g>
    </g>
    <g  transform="translate(4.1164498)">
        <g >
            <g gorn="0.9.0.0"  id="g70">
                <g gorn="0.9.0.0.0"  id="g68"/>
            </g>
        </g>
    </g>
    <g  transform="translate(4.1164498)">
        <g >
            <g gorn="0.10.0.0"  id="g78">
                <g gorn="0.10.0.0.0"  id="g76"/>
            </g>
        </g>
    </g>
    <g  transform="translate(4.1164498)">
        <g >
            <g gorn="0.11.0.0"  id="g86">
                <g gorn="0.11.0.0.0"  id="g84"/>
            </g>
        </g>
    </g>
    <g  transform="translate(4.1164498)">
        <g >
            <g gorn="0.12.0.0"  id="g94">
                <g gorn="0.12.0.0.0"  id="g92"/>
            </g>
        </g>
    </g>
    <g  transform="translate(4.1164498)">
        <g >
            <g gorn="0.13.0.0"  id="g102">
                <g gorn="0.13.0.0.0"  id="g100"/>
            </g>
        </g>
    </g>
    <g  transform="translate(4.1164498)">
        <g >
            <g gorn="0.14.0.0"  id="g110">
                <g gorn="0.14.0.0.0"  id="g108"/>
            </g>
        </g>
    </g>
    <g  transform="translate(4.1164498)">
        <g >
            <g gorn="0.15.0.0"  id="g118">
                <g gorn="0.15.0.0.0"  id="g116"/>
            </g>
        </g>
    </g>
    <g  transform="translate(4.1164498)">
        <g >
            <g gorn="0.16.0.0"  id="g126">
                <g gorn="0.16.0.0.0"  id="g124"/>
            </g>
        </g>
    </g>
    <g  transform="translate(4.1164498)">
        <g >
            <g gorn="0.17.0.0"  id="g134">
                <g gorn="0.17.0.0.0"  id="g132"/>
            </g>
        </g>
    </g>
    <g  transform="translate(4.1164498)">
        <g >
            <g gorn="0.18.0.0"  id="g142">
                <g gorn="0.18.0.0.0"  id="g140"/>
            </g>
        </g>
    </g>
    <g  transform="translate(4.1164498)">
        <g >
            <g gorn="0.19.0.0"  id="g150">
                <g gorn="0.19.0.0.0"  id="g148"/>
            </g>
        </g>
    </g>
    <g  transform="translate(4.1164498)">
        <g >
            <g gorn="0.20.0.0"  id="g158">
                <g gorn="0.20.0.0.0"  id="g156"/>
            </g>
        </g>
    </g>
    <g  transform="translate(4.1164498)">
        <g >
            <g gorn="0.21.0.0"  id="g166">
                <g gorn="0.21.0.0.0"  id="g164"/>
            </g>
        </g>
    </g>
    <g  transform="translate(4.1164498)">
        <g >
            <g gorn="0.22.0.0"  id="g174">
                <g gorn="0.22.0.0.0"  id="g172"/>
            </g>
        </g>
    </g>
    <g  transform="translate(4.1164498)">
        <g >
            <g gorn="0.23.0.0"  id="g182">
                <g gorn="0.23.0.0.0"  id="g180"/>
            </g>
        </g>
    </g>
    <g  transform="translate(4.1164498)">
        <g >
            <g gorn="0.24.0.0"  id="g190">
                <g gorn="0.24.0.0.0"  id="g188"/>
            </g>
        </g>
    </g>
    <g  transform="translate(4.1164498)">
        <g >
            <g gorn="0.25.0.0"  id="g198">
                <g gorn="0.25.0.0.0"  id="g196"/>
            </g>
        </g>
    </g>
    <g  transform="translate(4.1164498)">
        <g >
            <g gorn="0.26.0.0"  id="g206">
                <g gorn="0.26.0.0.0"  id="g204"/>
            </g>
        </g>
    </g>
    <g  transform="translate(4.1164498)">
        <g >
            <g gorn="0.27.0.0"  id="g214">
                <g gorn="0.27.0.0.0"  id="g212"/>
            </g>
        </g>
    </g>
    <g  transform="translate(4.1164498)">
        <g >
            <g gorn="0.28.0.0"  id="g222">
                <g gorn="0.28.0.0.0"  id="g220"/>
            </g>
        </g>
    </g>
    <g  transform="translate(4.1164498)">
        <g >
            <g gorn="0.29.0.0"  id="g230">
                <g gorn="0.29.0.0.0"  id="g228"/>
            </g>
        </g>
    </g>
    <g  transform="translate(4.1164498)">
        <g >
            <g gorn="0.30.0.0"  id="g238">
                <g gorn="0.30.0.0.0"  id="g236"/>
            </g>
        </g>
    </g>
    <g  transform="translate(4.1164498)">
        <g >
            <g gorn="0.31.0.0"  id="g246">
                <g gorn="0.31.0.0.0"  id="g244"/>
            </g>
        </g>
    </g>
    <g  transform="translate(4.1164498)">
        <g >
            <g gorn="0.32.0.0"  id="g254">
                <g gorn="0.32.0.0.0"  id="g252"/>
            </g>
        </g>
    </g>
    <g  transform="translate(4.1164498)">
        <g >
            <g gorn="0.33.0.0"  id="g280">
                <g gorn="0.33.0.0.0"  id="g278"/>
            </g>
        </g>
    </g>
    <g  transform="translate(4.1164498)">
        <g >
            <g gorn="0.34.0.0"  id="g288">
                <g gorn="0.34.0.0.0"  id="g286"/>
            </g>
        </g>
    </g>
    <g  transform="translate(4.1164498)">
        <g >
            <g gorn="0.35.0.0"  id="g296">
                <g gorn="0.35.0.0.0"  id="g294"/>
            </g>
        </g>
    </g>
    <g  transform="translate(4.1164498)">
        <g >
            <g gorn="0.36.0.0"  id="g304">
                <g gorn="0.36.0.0.0"  id="g302"/>
            </g>
        </g>
    </g>
    <g  transform="translate(4.1164498)">
        <g >
            <g gorn="0.37.0.0"  id="g312">
                <g gorn="0.37.0.0.0"  id="g310"/>
            </g>
        </g>
    </g>
    <g  transform="translate(4.1164498)">
        <g >
            <g gorn="0.38.0.0"  id="g320">
                <g gorn="0.38.0.0.0"  id="g318"/>
            </g>
        </g>
    </g>
    <g  transform="translate(4.1164498)">
        <g >
            <g gorn="0.39.0.0"  id="g344">
                <g gorn="0.39.0.0.0"  id="g342"/>
            </g>
        </g>
    </g>
    <g  transform="translate(4.1164498)">
        <g >
            <g gorn="0.40.0.0"  id="g352">
                <g gorn="0.40.0.0.0"  id="g350"/>
            </g>
        </g>
    </g>
    <g  transform="translate(4.1164498)">
        <g >
            <g gorn="0.41.0.0"  id="g360">
                <g gorn="0.41.0.0.0"  id="g358"/>
            </g>
        </g>
    </g>
    <g  transform="translate(4.1164498)">
        <g >
            <g gorn="0.42.0.0"  id="g368">
                <g gorn="0.42.0.0.0"  id="g366"/>
            </g>
        </g>
    </g>
    <g  transform="translate(4.1164498)">
        <g >
            <g gorn="0.43.0.0"  id="g376">
                <g gorn="0.43.0.0.0"  id="g374"/>
            </g>
        </g>
    </g>
    <g  transform="translate(4.1164498)">
        <g >
            <g gorn="0.44.0.0"  id="g384">
                <g gorn="0.44.0.0.0"  id="g382"/>
            </g>
        </g>
    </g>
    <g  transform="translate(4.1164498)">
        <g >
            <g gorn="0.45.0.0"  id="g392">
                <g gorn="0.45.0.0.0"  id="g390"/>
            </g>
        </g>
    </g>
    <g  transform="translate(4.1164498)">
        <g >
            <g gorn="0.46.0.0"  id="g400">
                <g gorn="0.46.0.0.0"  id="g398"/>
            </g>
        </g>
    </g>
    <g  transform="translate(4.1164498)">
        <g >
            <g gorn="0.47.0.0"  id="g408">
                <g gorn="0.47.0.0.0"  id="g406"/>
            </g>
        </g>
    </g>
    <g  transform="translate(4.1164498)">
        <g >
            <g gorn="0.48.0.0"  id="g416">
                <g gorn="0.48.0.0.0"  id="g414"/>
            </g>
        </g>
    </g>
    <g  transform="translate(4.1164498)">
        <g >
            <g gorn="0.49.0.0"  id="g424">
                <g gorn="0.49.0.0.0"  id="g422"/>
            </g>
        </g>
    </g>
    <g  transform="translate(4.1164498)">
        <g >
            <g gorn="0.50.0.0"  id="g520">
                <g gorn="0.50.0.0.0"  id="g518"/>
            </g>
        </g>
    </g>
    <g  transform="translate(4.1164498)">
        <g >
            <g gorn="0.51.0.0"  id="g528">
                <g gorn="0.51.0.0.0"  id="g526"/>
            </g>
        </g>
    </g>
    <g  transform="translate(4.1164498)">
        <g >
            <g gorn="0.52.0.0"  id="g536">
                <g gorn="0.52.0.0.0"  id="g534"/>
            </g>
        </g>
    </g>
    <g  transform="translate(4.1164498)">
        <g >
            <g gorn="0.53.0.0"  id="g544">
                <g gorn="0.53.0.0.0"  id="g542"/>
            </g>
        </g>
    </g>
    <g  transform="translate(4.1164498)">
        <g >
            <g gorn="0.54.0.0"  id="g552">
                <g gorn="0.54.0.0.0"  id="g550"/>
            </g>
        </g>
    </g>
    <g  transform="translate(4.1164498)">
        <g >
            <g gorn="0.55.0.0"  id="g560">
                <g gorn="0.55.0.0.0"  id="g558"/>
            </g>
        </g>
    </g>
    <g  transform="translate(4.1164498)">
        <g >
            <g gorn="0.56.0.0"  id="g568">
                <g gorn="0.56.0.0.0"  id="g566"/>
            </g>
        </g>
    </g>
    <g  transform="translate(4.1164498)">
        <g >
            <g gorn="0.57.0.0"  id="g576">
                <g gorn="0.57.0.0.0"  id="g574"/>
            </g>
        </g>
    </g>
    <g  transform="translate(4.1164498)">
        <g >
            <g gorn="0.58.0.0"  id="g584">
                <g gorn="0.58.0.0.0"  id="g582"/>
            </g>
        </g>
    </g>
    <g  transform="translate(4.1164498)">
        <g >
            <g gorn="0.59.0.0"  id="g592">
                <g gorn="0.59.0.0.0"  id="g590"/>
            </g>
        </g>
    </g>
    <g  transform="translate(4.1164498)">
        <g >
            <g gorn="0.60.0.0"  id="g600">
                <g gorn="0.60.0.0.0"  id="g598"/>
            </g>
        </g>
    </g>
    <g  transform="translate(4.1164498)">
        <g >
            <g gorn="0.61.0.0"  id="g608">
                <g gorn="0.61.0.0.0"  id="g606"/>
            </g>
        </g>
    </g>
    <g  transform="translate(4.1164498)">
        <g >
            <g gorn="0.62.0.0"  id="g616">
                <g gorn="0.62.0.0.0"  id="g614"/>
            </g>
        </g>
    </g>
    <g  transform="translate(4.1164498)">
        <g >
            <g gorn="0.63.0.0"  id="g624">
                <g gorn="0.63.0.0.0"  id="g622"/>
            </g>
        </g>
    </g>
    <g  transform="translate(4.1164498)">
        <g >
            <g gorn="0.64.0.0"  id="g632">
                <g gorn="0.64.0.0.0"  id="g630"/>
            </g>
        </g>
    </g>
    <g  transform="translate(4.1164498)">
        <g >
            <g gorn="0.65.0.0"  id="g640">
                <g gorn="0.65.0.0.0"  id="g638"/>
            </g>
        </g>
    </g>
    <g  transform="translate(4.1164498)">
        <g >
            <g gorn="0.66.0.0"  id="g648">
                <g gorn="0.66.0.0.0"  id="g646"/>
            </g>
        </g>
    </g>
    <g  transform="translate(4.1164498)">
        <g >
            <g gorn="0.67.0.0"  id="g656">
                <g gorn="0.67.0.0.0"  id="g654"/>
            </g>
        </g>
    </g>
    <g  transform="translate(4.1164498)">
        <g >
            <g gorn="0.68.0.0"  id="g664">
                <g gorn="0.68.0.0.0"  id="g662"/>
            </g>
        </g>
    </g>
    <g  transform="translate(4.1164498)">
        <g >
            <g gorn="0.69.0.0"  id="g672">
                <g gorn="0.69.0.0.0"  id="g670"/>
            </g>
        </g>
    </g>
    <g  transform="translate(4.1164498)">
        <g >
            <g gorn="0.70.0.0"  id="g680">
                <g gorn="0.70.0.0.0"  id="g678"/>
            </g>
        </g>
    </g>
    <g  transform="translate(4.1164498)">
        <g >
            <g gorn="0.71.0.0"  id="g688">
                <g gorn="0.71.0.0.0"  id="g686"/>
            </g>
        </g>
    </g>
    <g  transform="translate(4.1164498)">
        <g >
            <g gorn="0.72.0.0"  id="g696">
                <g gorn="0.72.0.0.0"  id="g694"/>
            </g>
        </g>
    </g>
    <g  transform="translate(4.1164498)">
        <g >
            <g gorn="0.73.0.0"  id="g704">
                <g gorn="0.73.0.0.0"  id="g702"/>
            </g>
        </g>
    </g>
    <g  transform="translate(4.1164498)">
        <g >
            <g gorn="0.74.0.0"  id="g712">
                <g gorn="0.74.0.0.0"  id="g710"/>
            </g>
        </g>
    </g>
    <g  transform="translate(4.1164498)">
        <g >
            <g gorn="0.75.0.0"  id="g720">
                <g gorn="0.75.0.0.0"  id="g718"/>
            </g>
        </g>
    </g>
    <g  transform="translate(4.1164498)">
        <g >
            <g gorn="0.76.0.0"  id="g728">
                <g gorn="0.76.0.0.0"  id="g726"/>
            </g>
        </g>
    </g>
    <g  transform="translate(4.1164498)">
        <g >
            <g gorn="0.77.0.0"  id="g736">
                <g gorn="0.77.0.0.0"  id="g734"/>
            </g>
        </g>
    </g>
    <g  transform="translate(4.1164498)">
        <g >
            <g gorn="0.78.0.0"  id="g744">
                <g gorn="0.78.0.0.0"  id="g742"/>
            </g>
        </g>
    </g>
    <g  transform="translate(4.1164498)">
        <g >
            <g gorn="0.79.0.0"  id="g752">
                <g gorn="0.79.0.0.0"  id="g750"/>
            </g>
        </g>
    </g>
    <g  transform="translate(4.1164498)">
        <g >
            <g gorn="0.80.0.0"  id="g760">
                <g gorn="0.80.0.0.0"  id="g758"/>
            </g>
        </g>
    </g>
    <g  transform="translate(4.1164498)">
        <g >
            <g gorn="0.81.0.0"  id="g768">
                <g gorn="0.81.0.0.0"  id="g766"/>
            </g>
        </g>
    </g>
    <g  transform="translate(4.1164498)">
        <g >
            <g gorn="0.82.0.0"  id="g828">
                <g gorn="0.82.0.0.0"  id="g826"/>
            </g>
        </g>
    </g>
    <g  transform="translate(4.1164498)">
        <g >
            <g gorn="0.83.0.0"  id="g836">
                <g gorn="0.83.0.0.0"  id="g834"/>
            </g>
        </g>
    </g>
    <g  transform="translate(4.1164498)">
        <g >
            <g gorn="0.84.0.0"  id="g844">
                <g gorn="0.84.0.0.0"  id="g842"/>
            </g>
        </g>
    </g>
    <g  transform="translate(4.1164498)">
        <g >
            <g gorn="0.85.0.0"  id="g872">
                <g gorn="0.85.0.0.0"  id="g870"/>
            </g>
        </g>
    </g>
    <g  transform="translate(4.1164498)">
        <g >
            <g gorn="0.86.0.0"  id="g880">
                <g gorn="0.86.0.0.0"  id="g878"/>
            </g>
        </g>
    </g>
    <g  transform="translate(4.1164498)">
        <g >
            <g gorn="0.87.0.0"  id="g948">
                <g gorn="0.87.0.0.0"  id="g946"/>
            </g>
        </g>
    </g>
    <g  transform="translate(4.1164498)">
        <g >
            <g gorn="0.88.0.0"  id="g956">
                <g gorn="0.88.0.0.0"  id="g954"/>
            </g>
        </g>
    </g>
    <g  transform="translate(4.1164498)">
        <g >
            <g gorn="0.89.0.0"  id="g964">
                <g gorn="0.89.0.0.0"  id="g962"/>
            </g>
        </g>
    </g>
    <g  transform="translate(4.1164498)">
        <g >
            <g gorn="0.90.0.0"  id="g972">
                <g gorn="0.90.0.0.0"  id="g970"/>
            </g>
        </g>
    </g>
    <g  transform="translate(4.1164498)">
        <g >
            <g gorn="0.91.0.0"  id="g980">
                <g gorn="0.91.0.0.0"  id="g978"/>
            </g>
        </g>
    </g>
    <g  transform="translate(4.1164498)">
        <g >
            <g gorn="0.92.0.0"  id="g988">
                <g gorn="0.92.0.0.0"  id="g986"/>
            </g>
        </g>
    </g>
    <g  transform="translate(4.1164498)">
        <g >
            <g gorn="0.93.0.0"  id="g996">
                <g gorn="0.93.0.0.0"  id="g994"/>
            </g>
        </g>
    </g>
    <g  transform="translate(4.1164498)">
        <g >
            <g gorn="0.94.0.0"  id="g1004">
                <g gorn="0.94.0.0.0"  id="g1002"/>
            </g>
        </g>
    </g>
    <g  transform="translate(4.1164498)">
        <g >
            <g gorn="0.95.0.0"  id="g1012">
                <g gorn="0.95.0.0.0"  id="g1010"/>
            </g>
        </g>
    </g>
    <g  transform="translate(4.1164498)">
        <g >
            <g gorn="0.96.0.0"  id="g1020">
                <g gorn="0.96.0.0.0"  id="g1018"/>
            </g>
        </g>
    </g>
    <g  transform="translate(4.1164498)">
        <g >
            <g gorn="0.97.0.0"  id="g1028">
                <g gorn="0.97.0.0.0"  id="g1026"/>
            </g>
        </g>
    </g>
    <g  transform="translate(4.1164498)">
        <g >
            <g gorn="0.98.0.0"  id="g1064">
                <g gorn="0.98.0.0.0"  id="g1062"/>
            </g>
        </g>
    </g>
    <g  transform="translate(4.1164498)">
        <g >
            <g gorn="0.99.0.0"  id="g1072">
                <g gorn="0.99.0.0.0"  id="g1070"/>
            </g>
        </g>
    </g>
    <g  transform="translate(4.1164498)">
        <g >
            <g gorn="0.100.0.0"  id="g1080">
                <g gorn="0.100.0.0.0"  id="g1078"/>
            </g>
        </g>
    </g>
    <g  transform="translate(4.1164498)">
        <g >
            <g gorn="0.101.0.0"  id="g1120">
                <g gorn="0.101.0.0.0"  id="g1118"/>
            </g>
        </g>
    </g>
    <g >
        <path gorn="0.102.0"  d="M224.0767,0.009c3.7726-0.0045,6.8347,3.0498,6.84,6.8224V144.027c-0.0019,3.9614-3.2096,7.174-7.171,7.182H11.3167c-3.9764,0-7.2-3.2235-7.2-7.2v-38.52l5.04-3.24v-50.04l-5.04-3.96v-41.4c0.1988-3.9765,3.5836-7.0388,7.56-6.84c0,0,0,0,0,0H224.0767 M225.3097,39.9491c0,0.7828,0.6346,1.4173,1.4173,1.4173s1.4173-0.6346,1.4173-1.4173s-0.6346-1.4173-1.4173-1.4173S225.3097,39.1663,225.3097,39.9491z M225.3097,46.4688c0,0.7828,0.6346,1.4173,1.4173,1.4173s1.4173-0.6346,1.4173-1.4173s-0.6346-1.4173-1.4173-1.4173S225.3097,45.686,225.3097,46.4688z M225.3097,75.9492c0,0.7828,0.6346,1.4173,1.4173,1.4173s1.4173-0.6346,1.4173-1.4173s-0.6346-1.4173-1.4173-1.4173S225.3097,75.1664,225.3097,75.9492z M225.3097,82.4688c0,0.7828,0.6346,1.4173,1.4173,1.4173s1.4173-0.6346,1.4173-1.4173s-0.6346-1.4173-1.4173-1.4173S225.3097,81.686,225.3097,82.4688z M34.5891,5.049c0,0.7045,0.5711,1.2756,1.2756,1.2756c0.7045,0,1.2756-0.5711,1.2756-1.2756c0.0009-0.7045-0.5695-1.2763-1.274-1.2771c-0.7045-0.0009-1.2763,0.5695-1.2771,1.274C34.5891,5.0469,34.5891,5.048,34.5891,5.049z M43.0931,5.049c-0.0009,0.7045,0.5695,1.2763,1.274,1.2771c0.7045,0.0009,1.2763-0.5696,1.2771-1.274c0-0.001,0-0.0021,0-0.0031c0.0009-0.7045-0.5695-1.2763-1.274-1.2771c-0.7045-0.0009-1.2763,0.5695-1.2771,1.274C43.0931,5.0469,43.0931,5.048,43.0931,5.049z M214.7137,123.401c-0.0017,0.5088,0.4094,0.9226,0.9182,0.9243c0.5088,0.0017,0.9226-0.4094,0.9243-0.9182c0-0.002,0-0.0041,0-0.0061c0.0017-0.5088-0.4094-0.9226-0.9182-0.9243c-0.5088-0.0017-0.9226,0.4094-0.9243,0.9182C214.7137,123.397,214.7137,123.399,214.7137,123.401z M214.7137,107.017c-0.0017,0.5088,0.4094,0.9226,0.9182,0.9243c0.5088,0.0017,0.9226-0.4094,0.9243-0.9182c0-0.002,0-0.0041,0-0.0061c0.0017-0.5088-0.4094-0.9226-0.9182-0.9243c-0.5088-0.0017-0.9226,0.4094-0.9243,0.9182C214.7137,107.013,214.7137,107.015,214.7137,107.017z M149.9387,43.929c0,0.7828,0.6346,1.4173,1.4173,1.4173s1.4173-0.6346,1.4173-1.4173s-0.6346-1.4173-1.4173-1.4173S149.9387,43.1462,149.9387,43.929z M149.9387,36.729c0,0.7828,0.6346,1.4173,1.4173,1.4173s1.4173-0.6346,1.4173-1.4173s-0.6346-1.4173-1.4173-1.4173S149.9387,35.9462,149.9387,36.729z M214.0927,10.809c0,3.3268,2.6969,6.0237,6.0237,6.0237c3.3268,0,6.0237-2.6969,6.0237-6.0237s-2.6969-6.0237-6.0237-6.0237C216.7896,4.7853,214.0927,7.4822,214.0927,10.809z M214.0927,140.409c0,3.3268,2.6969,6.0237,6.0237,6.0237c3.3268,0,6.0237-2.6969,6.0237-6.0237s-2.6969-6.0237-6.0237-6.0237C216.7896,134.3853,214.0927,137.0822,214.0927,140.409z M8.8931,10.809c-0.0007,3.3268,2.6957,6.0242,6.0225,6.0248s6.0242-2.6957,6.0248-6.0225c0-0.0008,0-0.0016,0-0.0024c0.0007-3.3268-2.6957-6.0242-6.0225-6.0248s-6.0242,2.6957-6.0248,6.0225C8.8931,10.8074,8.8931,10.8082,8.8931,10.809z M8.8931,140.409c-0.0007,3.3268,2.6957,6.0242,6.0225,6.0248c3.3268,0.0007,6.0242-2.6957,6.0248-6.0224c0-0.0008,0-0.0016,0-0.0024c0.0007-3.3268-2.6957-6.0242-6.0225-6.0248c-3.3268-0.0007-6.0242,2.6957-6.0248,6.0224C8.8931,140.4074,8.8931,140.4082,8.8931,140.409z" id="path4"/>
        <path  d="M122.6549,12.8434c0.1246,0.1862,0.1246,0.4399,0,0.6261c-1.0167,1.5191-2.7444,2.5216-4.7095,2.5216s-3.6928-1.0025-4.7095-2.5216c-0.1246-0.1862-0.1246-0.4399,0-0.6261c1.0167-1.5191,2.7444-2.5216,4.7095-2.5216S121.6383,11.3243,122.6549,12.8434z M44.794,149.9033h0.8652c0.2305,0,0.4355-0.0391,0.6152-0.1172s0.332-0.1914,0.457-0.3379s0.2217-0.3262,0.2881-0.5371c0.0664-0.2119,0.0996-0.4512,0.0996-0.7178v-0.0801c0-0.2695-0.0332-0.5107-0.0996-0.7227s-0.1631-0.3906-0.2881-0.5371s-0.2773-0.2588-0.457-0.335c-0.1797-0.0771-0.3848-0.1152-0.6152-0.1152H44.794V149.9033z M45.6495,147.0136c0.2334,0,0.4219,0.0879,0.5654,0.2646c0.1426,0.1768,0.2148,0.46,0.2148,0.8496v0.0508c0,0.3896-0.0723,0.6729-0.2148,0.8496c-0.1436,0.1768-0.332,0.2646-0.5654,0.2646h-0.1846v-2.2793H45.6495z M47.7755,149.9033h0.6699v-3.5254h-0.4697l-0.71,0.2207l0.0605,0.6201l0.4492-0.1309V149.9033z M50.1271,149.8779c0.1367-0.0527,0.2549-0.1309,0.3545-0.2344c0.1006-0.1035,0.1787-0.2295,0.2354-0.3779s0.085-0.3154,0.085-0.502v-0.0156c0-0.1963-0.0273-0.3643-0.082-0.502c-0.0557-0.1387-0.1289-0.252-0.2207-0.3398c-0.0918-0.0889-0.1963-0.1533-0.3145-0.1934c-0.1191-0.04-0.2393-0.0596-0.3633-0.0596c-0.0664,0-0.124,0.0039-0.1719,0.0127c-0.0488,0.0078-0.0957,0.0176-0.1426,0.0273l0.04-0.6699h1.1152v-0.6201h-1.6504l-0.0996,1.7148l0.3594,0.2354c0.0498-0.0264,0.1064-0.0488,0.168-0.0654s0.126-0.0244,0.1924-0.0244c0.1396,0,0.2588,0.0449,0.3574,0.1348s0.1475,0.2168,0.1475,0.3799v0.0049c0,0.167-0.043,0.2998-0.1299,0.3975c-0.0869,0.0986-0.2021,0.1475-0.3447,0.1475c-0.1104,0-0.208-0.0215-0.293-0.0645c-0.085-0.0439-0.1709-0.1035-0.2578-0.1807l-0.335,0.5254c0.127,0.1162,0.2686,0.2041,0.4258,0.2627c0.1562,0.0576,0.3164,0.0869,0.4795,0.0869C49.8419,149.958,49.9903,149.9316,50.1271,149.8779z M38.9205,10.7519h-0.2373l0.0664-0.5596h0.2549V9.7861h-0.2061l0.0625-0.5322h-0.3428l-0.0596,0.5322h-0.3291l0.0635-0.5322h-0.3428l-0.0635,0.5322h-0.2871v0.4062h0.2383l-0.0664,0.5596h-0.2559v0.4062h0.207l-0.0635,0.5459h0.3428l0.0635-0.5459h0.3291l-0.0635,0.5459h0.3398l0.0625-0.5459h0.2871V10.7519z M38.0738,10.1855h0.3398l-0.0664,0.5732h-0.3398L38.0738,10.1855z M40.4156,12.581c0.1348-0.0518,0.251-0.127,0.3496-0.2246c0.0986-0.0986,0.1748-0.2158,0.2295-0.3525c0.0557-0.1367,0.083-0.29,0.083-0.46v-0.0205c0-0.1396-0.0215-0.2637-0.0654-0.3721c-0.043-0.1084-0.1006-0.2031-0.1719-0.2832c-0.0723-0.0801-0.1553-0.1455-0.25-0.1973c-0.0957-0.0518-0.1943-0.0908-0.2979-0.1172l0.7451-0.8848V9.1035h-1.8203v0.6201h1.0352l-0.6895,0.8721l0.0449,0.4355h0.0801c0.2393,0,0.4199,0.0449,0.542,0.1357c0.1221,0.0898,0.1826,0.2148,0.1826,0.375v0.0107c0,0.1504-0.0449,0.2686-0.1348,0.3555s-0.2041,0.1299-0.3398,0.1299c-0.1309,0-0.2402-0.0283-0.3301-0.0869c-0.0908-0.0586-0.1641-0.1123-0.2207-0.1631l-0.3242,0.5205c0.1162,0.1064,0.251,0.1914,0.4043,0.2549s0.3232,0.0947,0.5107,0.0947C40.1344,12.6582,40.2799,12.6328,40.4156,12.581z M85.6842,10.7519h-0.2373l0.0664-0.5596h0.2549V9.7861h-0.2061l0.0625-0.5322h-0.3428l-0.0596,0.5322h-0.3291l0.0635-0.5322h-0.3428l-0.0635,0.5322h-0.2871v0.4062h0.2383l-0.0664,0.5596h-0.2559v0.4062h0.207l-0.0635,0.5459h0.3428l0.0635-0.5459h0.3291l-0.0635,0.5459h0.3398l0.0625-0.5459h0.2871V10.7519z M84.8375,10.1855h0.3398l-0.0664,0.5732h-0.3398L84.8375,10.1855z M85.9391,12.6035h1.9199v-0.6299h-1.1201l0.5996-0.7754c0.1035-0.1328,0.1904-0.251,0.2598-0.3545c0.0703-0.1035,0.127-0.2002,0.1699-0.29c0.0439-0.0898,0.0742-0.1787,0.0928-0.2656c0.0186-0.0859,0.0273-0.1777,0.0273-0.2744v-0.0098c0-0.1533-0.0244-0.2891-0.0742-0.4082c-0.0508-0.1182-0.1201-0.2178-0.208-0.2998c-0.0879-0.0811-0.1924-0.1436-0.3125-0.1846c-0.1201-0.042-0.248-0.0625-0.3848-0.0625c-0.1865,0-0.3682,0.0459-0.5449,0.1367c-0.1768,0.0918-0.332,0.2246-0.4648,0.3984l0.3896,0.4648c0.0967-0.1133,0.1865-0.2021,0.2695-0.2656c0.084-0.0625,0.1787-0.0947,0.2852-0.0947c0.1006,0,0.1865,0.0332,0.2607,0.0996c0.0732,0.0674,0.1094,0.1592,0.1094,0.2754c0,0.0537-0.0068,0.1064-0.0195,0.1602c-0.0137,0.0537-0.0352,0.1104-0.0654,0.1729c-0.0303,0.0615-0.0703,0.1309-0.1221,0.207c-0.0518,0.0771-0.1143,0.165-0.1875,0.2646l-0.8799,1.1807V12.6035z M133.1671,10.7519h-0.2373l0.0664-0.5596h0.2549V9.7861h-0.2061l0.0625-0.5322h-0.3428l-0.0596,0.5322h-0.3291l0.0635-0.5322h-0.3428l-0.0635,0.5322h-0.2871v0.4062h0.2383l-0.0664,0.5596h-0.2559v0.4062h0.207l-0.0635,0.5459h0.3428l0.0635-0.5459h0.3291l-0.0635,0.5459h0.3398l0.0625-0.5459h0.2871V10.7519z M132.3204,10.1855h0.3398l-0.0664,0.5732h-0.3398L132.3204,10.1855z M133.8585,12.6035h0.6699V9.0781h-0.4697l-0.71,0.2207l0.0605,0.6201l0.4492-0.1309V12.6035z M177.0792,10.7519h-0.2373l0.0664-0.5596h0.2549V9.7861h-0.2061l0.0625-0.5322h-0.3428l-0.0596,0.5322h-0.3291l0.0635-0.5322h-0.3428l-0.0635,0.5322h-0.2871v0.4062h0.2383l-0.0664,0.5596h-0.2559v0.4062h0.207l-0.0635,0.5459h0.3428l0.0635-0.5459h0.3291l-0.0635,0.5459h0.3398l0.0625-0.5459h0.2871V10.7519z M176.2325,10.1855h0.3398l-0.0664,0.5732h-0.3398L176.2325,10.1855z M179.3556,12.2158c0.2041-0.2949,0.3066-0.7285,0.3066-1.3027v-0.125c0-0.5693-0.1025-1.002-0.3066-1.2969c-0.2051-0.2949-0.4844-0.4424-0.8379-0.4424c-0.3604,0-0.6426,0.1475-0.8477,0.4424s-0.3076,0.7295-0.3076,1.3027v0.125c0,0.5693,0.1006,1.002,0.3027,1.2969c0.2012,0.2949,0.4844,0.4424,0.8477,0.4424C178.8692,12.6582,179.1505,12.5107,179.3556,12.2158z M178.3302,11.9785c-0.0586-0.04-0.1094-0.1055-0.1523-0.1953c-0.0439-0.0898-0.0771-0.207-0.1006-0.3525c-0.0234-0.1445-0.0342-0.3242-0.0342-0.5371v-0.085c0-0.2129,0.0107-0.3926,0.0342-0.5371c0.0234-0.1455,0.0557-0.2627,0.0977-0.3525c0.042-0.0908,0.0918-0.1543,0.1504-0.1934c0.0576-0.0381,0.1201-0.0566,0.1875-0.0566c0.0635,0,0.124,0.0195,0.1826,0.0596c0.0576,0.04,0.1084,0.1055,0.1494,0.1953c0.042,0.0898,0.0752,0.207,0.1006,0.3525c0.0244,0.1445,0.0371,0.3242,0.0371,0.5371v0.085c0,0.2139-0.0117,0.3926-0.0352,0.5371c-0.0234,0.1455-0.0557,0.2627-0.0977,0.3525c-0.041,0.0908-0.0908,0.1543-0.1475,0.1934c-0.0566,0.0381-0.1182,0.0566-0.1846,0.0566S178.3888,12.0185,178.3302,11.9785z M193.92,10.3618h0.7793V7.9741l1.2422,2.3877h0.6963V6.1616h-0.7803v2.292l-1.1934-2.292H193.92V10.3618z M198.756,10.3198c0.1553-0.0723,0.3057-0.1738,0.4492-0.3057l-0.3418-0.5762c-0.0762,0.0801-0.1592,0.1494-0.249,0.21c-0.0898,0.0596-0.1934,0.0898-0.3086,0.0898c-0.1523,0-0.2812-0.0547-0.3877-0.165c-0.1055-0.1104-0.1729-0.2754-0.2002-0.4951h1.5537c0.0039-0.0879,0.0059-0.1611,0.0059-0.2188s0-0.0928,0-0.1055c0-0.252-0.0254-0.4795-0.0752-0.6836s-0.123-0.3789-0.2188-0.5254c-0.0957-0.1455-0.2158-0.2578-0.3604-0.3359c-0.1436-0.0781-0.3076-0.1162-0.4912-0.1162c-0.168,0-0.3242,0.0371-0.4688,0.1133c-0.1436,0.0762-0.2695,0.1846-0.3779,0.3242c-0.1074,0.1396-0.1914,0.3105-0.252,0.5098c-0.0596,0.2002-0.0898,0.4238-0.0898,0.6719v0.1025c0,0.2559,0.0342,0.4834,0.1016,0.6836c0.0684,0.2002,0.1602,0.3691,0.2764,0.5068c0.1162,0.1387,0.2539,0.2432,0.4141,0.3154s0.3301,0.1084,0.5098,0.1084C198.4298,10.4282,198.5997,10.3921,198.756,10.3198z M197.711,8.52c0.0127-0.252,0.0566-0.4424,0.1328-0.5703c0.0752-0.1279,0.1719-0.1914,0.2881-0.1914c0.123,0,0.2197,0.0654,0.2871,0.1973c0.0684,0.1318,0.1064,0.3203,0.1143,0.5645H197.711z M201.2833,10.3169c0.1543-0.0742,0.2871-0.1797,0.3994-0.3184c0.1123-0.1377,0.1992-0.3066,0.2617-0.5068s0.0938-0.4238,0.0938-0.6719v-0.126c0-0.248-0.0312-0.4707-0.0938-0.6689s-0.1494-0.3662-0.2617-0.5039s-0.2451-0.2441-0.3994-0.3184s-0.3223-0.1104-0.5029-0.1104c-0.1797,0-0.3477,0.0361-0.502,0.1104s-0.2861,0.1807-0.3965,0.3184s-0.1982,0.3066-0.2617,0.5068c-0.0645,0.2002-0.0967,0.4238-0.0967,0.6719v0.126c0,0.248,0.0312,0.4707,0.0938,0.6689c0.0615,0.1982,0.1494,0.3662,0.2617,0.5039c0.1123,0.1387,0.2451,0.2441,0.3994,0.3184s0.3223,0.1113,0.502,0.1113C200.961,10.4282,201.129,10.3911,201.2833,10.3169z M200.4288,9.4858c-0.083-0.1719-0.125-0.4023-0.125-0.6904V8.7241c0-0.292,0.041-0.5234,0.1221-0.6934c0.082-0.1699,0.2002-0.2549,0.3545-0.2549c0.1514,0,0.2686,0.0859,0.3525,0.2578c0.083,0.1719,0.125,0.4023,0.125,0.6904v0.0713c0,0.2881-0.041,0.5186-0.1221,0.6904c-0.082,0.1719-0.2002,0.2578-0.3555,0.2578C200.63,9.7436,200.5128,9.6577,200.4288,9.4858z M202.463,10.3618h0.8037V9.0659h0.2637c0.2041-0.0078,0.3936-0.0439,0.5674-0.1084c0.1738-0.0635,0.3252-0.1553,0.4531-0.2754s0.2275-0.2705,0.2998-0.4502s0.1084-0.3896,0.1084-0.6299V7.5893c0-0.2314-0.0352-0.4365-0.1055-0.6143s-0.168-0.3271-0.2939-0.4473s-0.2783-0.2109-0.4561-0.2734c-0.1777-0.0615-0.377-0.0928-0.5967-0.0928h-1.0439V10.3618z M203.2667,8.3335V6.9057h0.2158c0.2285,0,0.3965,0.0615,0.5039,0.1855c0.1084,0.123,0.1621,0.3008,0.1621,0.5312c0,0.2148-0.0557,0.3877-0.168,0.5176c-0.1123,0.1289-0.2803,0.1934-0.5039,0.1934H203.2667z M205.255,6.8217h0.8037V6.0776h-0.8037V6.8217z M205.2667,10.3618h0.7803V7.146h-0.7803V10.3618z M207.1593,7.146h-0.8164l0.75,1.5723l-0.7734,1.6436h0.8096l0.4141-1.0137l0.4082,1.0137h0.8281l-0.7803-1.6436l0.75-1.5723h-0.7979l-0.3955,0.9541L207.1593,7.146z M199.0118,15.6118h1.0381c0.2754,0,0.5215-0.0469,0.7373-0.1406c0.2168-0.0947,0.3994-0.2295,0.5498-0.4053c0.1494-0.1758,0.2646-0.3906,0.3447-0.6455c0.0801-0.2539,0.1201-0.541,0.1201-0.8604v-0.0967c0-0.3232-0.04-0.6123-0.1201-0.8662s-0.1953-0.4697-0.3447-0.6455c-0.1504-0.1758-0.333-0.3096-0.5498-0.4014c-0.2158-0.0928-0.4619-0.1387-0.7373-0.1387h-1.0381V15.6118z M200.0372,12.144c0.2803,0,0.5068,0.1055,0.6787,0.3174c0.1719,0.2129,0.2578,0.5527,0.2578,1.0205v0.0596c0,0.4688-0.0859,0.8086-0.2578,1.0205s-0.3984,0.3174-0.6787,0.3174h-0.2217V12.144H200.0372z M202.589,15.6118h0.8047v-4.2305h-0.5645l-0.8516,0.2646l0.0713,0.7441l0.54-0.1562V15.6118z M91.4684,149.9033h0.8652c0.2305,0,0.4355-0.0391,0.6152-0.1172s0.332-0.1914,0.457-0.3379s0.2217-0.3262,0.2881-0.5371c0.0664-0.2119,0.0996-0.4512,0.0996-0.7178v-0.0801c0-0.2695-0.0332-0.5107-0.0996-0.7227s-0.1631-0.3906-0.2881-0.5371s-0.2773-0.2588-0.457-0.335c-0.1797-0.0771-0.3848-0.1152-0.6152-0.1152h-0.8652V149.9033z M92.3238,147.0136c0.2334,0,0.4219,0.0879,0.5654,0.2646c0.1426,0.1768,0.2148,0.46,0.2148,0.8496v0.0508c0,0.3896-0.0723,0.6729-0.2148,0.8496c-0.1436,0.1768-0.332,0.2646-0.5654,0.2646h-0.1846v-2.2793H92.3238z M94.4498,149.9033h0.6699v-3.5254H94.65l-0.71,0.2207l0.0605,0.6201l0.4492-0.1309V149.9033z M96.7623,149.9033h0.6299v-0.6846h0.3652v-0.5752h-0.3652v-2.2549h-0.625l-1.335,2.335l0.0508,0.4951h1.2793V149.9033z M96.1021,148.6435l0.6602-1.1807v1.1807H96.1021z M115.505,4.7036h0.6602l0.1846-0.7305h0.9004l0.1904,0.7305h0.6846l-0.9746-3.5146h-0.6758L115.505,4.7036z M116.5099,3.3784l0.2949-1.1494l0.2852,1.1494H116.5099z M119.5978,4.6811c0.1348-0.0518,0.251-0.127,0.3496-0.2246c0.0986-0.0986,0.1748-0.2158,0.2295-0.3525c0.0557-0.1367,0.083-0.29,0.083-0.46V3.6235c0-0.1396-0.0215-0.2637-0.0654-0.3721c-0.043-0.1084-0.1006-0.2031-0.1719-0.2832c-0.0723-0.0801-0.1553-0.1455-0.25-0.1973c-0.0957-0.0518-0.1943-0.0908-0.2979-0.1172l0.7451-0.8848V1.2036h-1.8203v0.6201h1.0352l-0.6895,0.8721l0.0449,0.4355h0.0801c0.2393,0,0.4199,0.0449,0.542,0.1357c0.1221,0.0898,0.1826,0.2148,0.1826,0.375v0.0107c0,0.1504-0.0449,0.2686-0.1348,0.3555s-0.2041,0.1299-0.3398,0.1299c-0.1309,0-0.2402-0.0283-0.3301-0.0869c-0.0908-0.0586-0.1641-0.1123-0.2207-0.1631l-0.3242,0.5205c0.1162,0.1064,0.251,0.1914,0.4043,0.2549s0.3232,0.0947,0.5107,0.0947C119.3165,4.7583,119.462,4.7329,119.5978,4.6811z M138.4073,134.4033h0.8652c0.2305,0,0.4355-0.0391,0.6152-0.1172s0.332-0.1914,0.457-0.3379s0.2217-0.3262,0.2881-0.5371c0.0664-0.2119,0.0996-0.4512,0.0996-0.7178v-0.0801c0-0.2695-0.0332-0.5107-0.0996-0.7227s-0.1631-0.3906-0.2881-0.5371s-0.2773-0.2588-0.457-0.335c-0.1797-0.0771-0.3848-0.1152-0.6152-0.1152h-0.8652V134.4033z M139.2628,131.5136c0.2334,0,0.4219,0.0879,0.5654,0.2646c0.1426,0.1768,0.2148,0.46,0.2148,0.8496v0.0508c0,0.3896-0.0723,0.6729-0.2148,0.8496c-0.1436,0.1768-0.332,0.2646-0.5654,0.2646h-0.1846v-2.2793H139.2628z M141.3888,134.4033h0.6699v-3.5254h-0.4697l-0.71,0.2207l0.0605,0.6201l0.4492-0.1309V134.4033z M142.4395,134.4033h1.9199v-0.6299h-1.1201l0.5996-0.7754c0.1035-0.1328,0.1904-0.251,0.2598-0.3545c0.0703-0.1035,0.127-0.2002,0.1699-0.29c0.0439-0.0898,0.0742-0.1787,0.0928-0.2656c0.0186-0.0859,0.0273-0.1777,0.0273-0.2744v-0.0098c0-0.1533-0.0244-0.2891-0.0742-0.4082c-0.0508-0.1182-0.1201-0.2178-0.208-0.2998c-0.0879-0.0811-0.1924-0.1436-0.3125-0.1846c-0.1201-0.042-0.248-0.0625-0.3848-0.0625c-0.1865,0-0.3682,0.0459-0.5449,0.1367c-0.1768,0.0918-0.332,0.2246-0.4648,0.3984l0.3896,0.4648c0.0967-0.1133,0.1865-0.2021,0.2695-0.2656c0.084-0.0625,0.1787-0.0947,0.2852-0.0947c0.1006,0,0.1865,0.0332,0.2607,0.0996c0.0732,0.0674,0.1094,0.1592,0.1094,0.2754c0,0.0537-0.0068,0.1064-0.0195,0.1602c-0.0137,0.0537-0.0352,0.1104-0.0654,0.1729c-0.0303,0.0615-0.0703,0.1309-0.1221,0.207c-0.0518,0.0771-0.1143,0.165-0.1875,0.2646l-0.8799,1.1807V134.4033z M185.547,134.4033h0.8652c0.2305,0,0.4355-0.0391,0.6152-0.1172s0.332-0.1914,0.457-0.3379s0.2217-0.3262,0.2881-0.5371c0.0664-0.2119,0.0996-0.4512,0.0996-0.7178v-0.0801c0-0.2695-0.0332-0.5107-0.0996-0.7227s-0.1631-0.3906-0.2881-0.5371s-0.2773-0.2588-0.457-0.335c-0.1797-0.0771-0.3848-0.1152-0.6152-0.1152h-0.8652V134.4033z M186.4024,131.5136c0.2334,0,0.4219,0.0879,0.5654,0.2646c0.1426,0.1768,0.2148,0.46,0.2148,0.8496v0.0508c0,0.3896-0.0723,0.6729-0.2148,0.8496c-0.1436,0.1768-0.332,0.2646-0.5654,0.2646h-0.1846v-2.2793H186.4024z M188.5284,134.4033h0.6699v-3.5254h-0.4697l-0.71,0.2207l0.0605,0.6201l0.4492-0.1309V134.4033z M190.0147,134.4033h0.6699v-3.5254h-0.4697l-0.71,0.2207l0.0605,0.6201l0.4492-0.1309V134.4033z M35.1644,144.6554l-0.0006-8.5033l-4.2513,4.2513L35.1644,144.6554z M90.2859,134.3498l8.5033-0.0006l-4.2513-4.2513L90.2859,134.3498z M145.5894,146.4578l-8.5033,0.0006l4.2513,4.2513L145.5894,146.4578z M200.7108,136.1514l0.0006,8.5033l4.2513-4.2513L200.7108,136.1514z M42.0889,13.6265L31.9368,23.7786h31.6023L53.387,13.6265H42.0889z M180.6885,13.6265l-10.1521,10.1521h31.6023l-10.1521-10.1521H180.6885z M135.6885,13.6265l-10.1521,10.1521h31.6023l-10.1521-10.1521H135.6885z M88.8885,13.6265L78.7364,23.7786h31.6023l-10.1521-10.1521H88.8885z M117.9454,10.8178c-0.5168,0-0.9907,0.174-1.3782,0.4592l0.3003,0.3003c0.3074-0.2105,0.6783-0.3347,1.0779-0.3347c1.0547,0,1.9131,0.8584,1.9131,1.9136s-0.8584,1.9141-1.9131,1.9141s-1.9136-0.8589-1.9136-1.9141c0-0.3997,0.1241-0.7705,0.3345-1.0778l-0.3002-0.3004c-0.2851,0.3875-0.4592,0.8613-0.4592,1.3782c0,1.2896,1.0493,2.3389,2.3384,2.3389s2.3389-1.0493,2.3389-2.3389S119.2345,10.8178,117.9454,10.8178z M117.9454,13.936c0.4305,0,0.7795-0.349,0.7795-0.7795s-0.349-0.7795-0.7795-0.7795c-0.0822,0-0.1572,0.0232-0.2316,0.0468l0.0734,0.0734c0.1377,0.1382,0.1377,0.3628,0,0.501c-0.0693,0.0693-0.1602,0.104-0.251,0.104s-0.1816-0.0347-0.251-0.104l-0.0727-0.0728c-0.0235,0.0742-0.0467,0.1492-0.0467,0.2312C117.1659,13.587,117.5149,13.936,117.9454,13.936z" fill="#FFFFFF"/>
        <g  transform="translate(4.1164498)">
            <g >
                <g gorn="0.102.2.0.0"  id="g336">
                    <g gorn="0.102.2.0.0.0"  id="g334">
                        <line stroke-width="0.36" y1="23.8019" y2="23.8019" gorn="0.102.2.0.0.0.0"  x1="1.4391" id="line326" x2="225.3763" stroke="#FFFFFF" stroke-linecap="round" fill="none"/>
                        <line stroke-width="0.36" y1="23.8019" y2="127.833" gorn="0.102.2.0.0.0.1"  x1="225.3763" id="line328" x2="225.3763" stroke="#FFFFFF" stroke-linecap="round" fill="none"/>
                        <line stroke-width="0.36" y1="127.833" y2="127.833" gorn="0.102.2.0.0.0.2"  x1="225.3763" id="line330" x2="1.4391" stroke="#FFFFFF" stroke-linecap="round" fill="none"/>
                        <line stroke-width="0.36" y1="127.833" y2="23.8019" gorn="0.102.2.0.0.0.3"  x1="1.4391" id="line332" x2="1.4391" stroke="#FFFFFF" stroke-linecap="round" fill="none"/>
                    </g>
                </g>
            </g>
        </g>
        <g  transform="translate(4.1164498)">
            <g >
                <g gorn="0.102.3.0.0"  id="g446">
                    <g gorn="0.102.3.0.0.0"  id="g444">
                        <line stroke-width="0.432" y1="7.9744" y2="7.9744" gorn="0.102.3.0.0.0.0"  x1="176.1313" id="line430" x2="187.4693" stroke="#FFFFFF" stroke-linecap="round" fill="none"/>
                        <line stroke-width="0.432" y1="7.9744" y2="12.2263" gorn="0.102.3.0.0.0.1"  x1="187.4693" id="line432" x2="187.4693" stroke="#FFFFFF" stroke-linecap="round" fill="none"/>
                        <line stroke-width="0.432" y1="12.2263" y2="13.6436" gorn="0.102.3.0.0.0.2"  x1="187.4693" id="line434" x2="187.4693" stroke="#FFFFFF" stroke-linecap="round" fill="none"/>
                        <line stroke-width="0.432" y1="13.6436" y2="13.6436" gorn="0.102.3.0.0.0.3"  x1="187.4693" id="line436" x2="186.0523" stroke="#FFFFFF" stroke-linecap="round" fill="none"/>
                        <line stroke-width="0.432" y1="13.6436" y2="13.6436" gorn="0.102.3.0.0.0.4"  x1="186.0523" id="line438" x2="176.1313" stroke="#FFFFFF" stroke-linecap="round" fill="none"/>
                        <line stroke-width="0.432" y1="13.6436" y2="7.9744" gorn="0.102.3.0.0.0.5"  x1="176.1313" id="line440" x2="176.1313" stroke="#FFFFFF" stroke-linecap="round" fill="none"/>
                        <line stroke-width="0.432" y1="13.6436" y2="12.2263" gorn="0.102.3.0.0.0.6"  x1="186.0523" id="line442" x2="187.4693" stroke="#FFFFFF" stroke-linecap="round" fill="none"/>
                    </g>
                </g>
            </g>
        </g>
        <g  transform="translate(4.1164498)">
            <g >
                <g gorn="0.102.4.0.0"  id="g468">
                    <g gorn="0.102.4.0.0.0"  id="g466">
                        <line stroke-width="0.432" y1="7.9744" y2="7.9744" gorn="0.102.4.0.0.0.0"  x1="131.1313" id="line452" x2="142.4693" stroke="#FFFFFF" stroke-linecap="round" fill="none"/>
                        <line stroke-width="0.432" y1="7.9744" y2="12.2263" gorn="0.102.4.0.0.0.1"  x1="142.4693" id="line454" x2="142.4693" stroke="#FFFFFF" stroke-linecap="round" fill="none"/>
                        <line stroke-width="0.432" y1="12.2263" y2="13.6436" gorn="0.102.4.0.0.0.2"  x1="142.4693" id="line456" x2="142.4693" stroke="#FFFFFF" stroke-linecap="round" fill="none"/>
                        <line stroke-width="0.432" y1="13.6436" y2="13.6436" gorn="0.102.4.0.0.0.3"  x1="142.4693" id="line458" x2="141.0523" stroke="#FFFFFF" stroke-linecap="round" fill="none"/>
                        <line stroke-width="0.432" y1="13.6436" y2="13.6436" gorn="0.102.4.0.0.0.4"  x1="141.0523" id="line460" x2="131.1313" stroke="#FFFFFF" stroke-linecap="round" fill="none"/>
                        <line stroke-width="0.432" y1="13.6436" y2="7.9744" gorn="0.102.4.0.0.0.5"  x1="131.1313" id="line462" x2="131.1313" stroke="#FFFFFF" stroke-linecap="round" fill="none"/>
                        <line stroke-width="0.432" y1="13.6436" y2="12.2263" gorn="0.102.4.0.0.0.6"  x1="141.0523" id="line464" x2="142.4693" stroke="#FFFFFF" stroke-linecap="round" fill="none"/>
                    </g>
                </g>
            </g>
        </g>
        <g  transform="translate(4.1164498)">
            <g >
                <g gorn="0.102.5.0.0"  id="g490">
                    <g gorn="0.102.5.0.0.0"  id="g488">
                        <line stroke-width="0.432" y1="7.9744" y2="7.9744" gorn="0.102.5.0.0.0.0"  x1="84.331" id="line474" x2="95.6696" stroke="#FFFFFF" stroke-linecap="round" fill="none"/>
                        <line stroke-width="0.432" y1="7.9744" y2="12.2263" gorn="0.102.5.0.0.0.1"  x1="95.6696" id="line476" x2="95.6696" stroke="#FFFFFF" stroke-linecap="round" fill="none"/>
                        <line stroke-width="0.432" y1="12.2263" y2="13.6436" gorn="0.102.5.0.0.0.2"  x1="95.6696" id="line478" x2="95.6696" stroke="#FFFFFF" stroke-linecap="round" fill="none"/>
                        <line stroke-width="0.432" y1="13.6436" y2="13.6436" gorn="0.102.5.0.0.0.3"  x1="95.6696" id="line480" x2="94.2526" stroke="#FFFFFF" stroke-linecap="round" fill="none"/>
                        <line stroke-width="0.432" y1="13.6436" y2="13.6436" gorn="0.102.5.0.0.0.4"  x1="94.2526" id="line482" x2="84.331" stroke="#FFFFFF" stroke-linecap="round" fill="none"/>
                        <line stroke-width="0.432" y1="13.6436" y2="7.9744" gorn="0.102.5.0.0.0.5"  x1="84.331" id="line484" x2="84.331" stroke="#FFFFFF" stroke-linecap="round" fill="none"/>
                        <line stroke-width="0.432" y1="13.6436" y2="12.2263" gorn="0.102.5.0.0.0.6"  x1="94.2526" id="line486" x2="95.6696" stroke="#FFFFFF" stroke-linecap="round" fill="none"/>
                    </g>
                </g>
            </g>
        </g>
        <g  transform="translate(4.1164498)">
            <g >
                <g gorn="0.102.6.0.0"  id="g512">
                    <g gorn="0.102.6.0.0.0"  id="g510">
                        <line stroke-width="0.432" y1="7.9744" y2="7.9744" gorn="0.102.6.0.0.0.0"  x1="37.531" id="line496" x2="48.8696" stroke="#FFFFFF" stroke-linecap="round" fill="none"/>
                        <line stroke-width="0.432" y1="7.9744" y2="12.2263" gorn="0.102.6.0.0.0.1"  x1="48.8696" id="line498" x2="48.8696" stroke="#FFFFFF" stroke-linecap="round" fill="none"/>
                        <line stroke-width="0.432" y1="12.2263" y2="13.6436" gorn="0.102.6.0.0.0.2"  x1="48.8696" id="line500" x2="48.8696" stroke="#FFFFFF" stroke-linecap="round" fill="none"/>
                        <line stroke-width="0.432" y1="13.6436" y2="13.6436" gorn="0.102.6.0.0.0.3"  x1="48.8696" id="line502" x2="47.4523" stroke="#FFFFFF" stroke-linecap="round" fill="none"/>
                        <line stroke-width="0.432" y1="13.6436" y2="13.6436" gorn="0.102.6.0.0.0.4"  x1="47.4523" id="line504" x2="37.531" stroke="#FFFFFF" stroke-linecap="round" fill="none"/>
                        <line stroke-width="0.432" y1="13.6436" y2="7.9744" gorn="0.102.6.0.0.0.5"  x1="37.531" id="line506" x2="37.531" stroke="#FFFFFF" stroke-linecap="round" fill="none"/>
                        <line stroke-width="0.432" y1="13.6436" y2="12.2263" gorn="0.102.6.0.0.0.6"  x1="47.4523" id="line508" x2="48.8696" stroke="#FFFFFF" stroke-linecap="round" fill="none"/>
                    </g>
                </g>
            </g>
        </g>
        <g  transform="translate(4.1164498)">
            <g >
                <g gorn="0.102.7.0.0"  id="g864">
                    <g gorn="0.102.7.0.0.0"  id="g862">
                        <line stroke-width="0.36" y1="136.157" y2="135.023" gorn="0.102.7.0.0.0.0"  x1="174.8123" id="line850" x2="174.8123" stroke="#FFFFFF" stroke-linecap="round" fill="none"/>
                        <line stroke-width="0.36" y1="135.023" y2="135.023" gorn="0.102.7.0.0.0.1"  x1="174.8123" id="line852" x2="192.3883" stroke="#FFFFFF" stroke-linecap="round" fill="none"/>
                        <line stroke-width="0.36" y1="135.023" y2="136.157" gorn="0.102.7.0.0.0.2"  x1="192.3883" id="line854" x2="192.3883" stroke="#FFFFFF" stroke-linecap="round" fill="none"/>
                        <line stroke-width="0.36" y1="144.661" y2="145.795" gorn="0.102.7.0.0.0.3"  x1="174.8123" id="line856" x2="174.8123" stroke="#FFFFFF" stroke-linecap="round" fill="none"/>
                        <line stroke-width="0.36" y1="145.795" y2="145.795" gorn="0.102.7.0.0.0.4"  x1="174.8123" id="line858" x2="192.3883" stroke="#FFFFFF" stroke-linecap="round" fill="none"/>
                        <line stroke-width="0.36" y1="145.795" y2="144.661" gorn="0.102.7.0.0.0.5"  x1="192.3883" id="line860" x2="192.3883" stroke="#FFFFFF" stroke-linecap="round" fill="none"/>
                    </g>
                </g>
            </g>
        </g>
        <g  transform="translate(4.1164498)">
            <g >
                <g gorn="0.102.8.0.0"  id="g900">
                    <g gorn="0.102.8.0.0.0"  id="g898">
                        <line stroke-width="0.36" y1="136.157" y2="135.023" gorn="0.102.8.0.0.0.0"  x1="128.0123" id="line886" x2="128.0123" stroke="#FFFFFF" stroke-linecap="round" fill="none"/>
                        <line stroke-width="0.36" y1="135.023" y2="135.023" gorn="0.102.8.0.0.0.1"  x1="128.0123" id="line888" x2="145.5883" stroke="#FFFFFF" stroke-linecap="round" fill="none"/>
                        <line stroke-width="0.36" y1="135.023" y2="136.157" gorn="0.102.8.0.0.0.2"  x1="145.5883" id="line890" x2="145.5883" stroke="#FFFFFF" stroke-linecap="round" fill="none"/>
                        <line stroke-width="0.36" y1="144.661" y2="145.795" gorn="0.102.8.0.0.0.3"  x1="128.0123" id="line892" x2="128.0123" stroke="#FFFFFF" stroke-linecap="round" fill="none"/>
                        <line stroke-width="0.36" y1="145.795" y2="145.795" gorn="0.102.8.0.0.0.4"  x1="128.0123" id="line894" x2="145.5883" stroke="#FFFFFF" stroke-linecap="round" fill="none"/>
                        <line stroke-width="0.36" y1="145.795" y2="144.661" gorn="0.102.8.0.0.0.5"  x1="145.5883" id="line896" x2="145.5883" stroke="#FFFFFF" stroke-linecap="round" fill="none"/>
                    </g>
                </g>
            </g>
        </g>
        <g  transform="translate(4.1164498)">
            <g >
                <g gorn="0.102.9.0.0"  id="g920">
                    <g gorn="0.102.9.0.0.0"  id="g918">
                        <line stroke-width="0.36" y1="136.157" y2="135.023" gorn="0.102.9.0.0.0.0"  x1="81.2127" id="line906" x2="81.2127" stroke="#FFFFFF" stroke-linecap="round" fill="none"/>
                        <line stroke-width="0.36" y1="135.023" y2="135.023" gorn="0.102.9.0.0.0.1"  x1="81.2127" id="line908" x2="98.7879" stroke="#FFFFFF" stroke-linecap="round" fill="none"/>
                        <line stroke-width="0.36" y1="135.023" y2="136.157" gorn="0.102.9.0.0.0.2"  x1="98.7879" id="line910" x2="98.7879" stroke="#FFFFFF" stroke-linecap="round" fill="none"/>
                        <line stroke-width="0.36" y1="144.661" y2="145.795" gorn="0.102.9.0.0.0.3"  x1="81.2127" id="line912" x2="81.2127" stroke="#FFFFFF" stroke-linecap="round" fill="none"/>
                        <line stroke-width="0.36" y1="145.795" y2="145.795" gorn="0.102.9.0.0.0.4"  x1="81.2127" id="line914" x2="98.7879" stroke="#FFFFFF" stroke-linecap="round" fill="none"/>
                        <line stroke-width="0.36" y1="145.795" y2="144.661" gorn="0.102.9.0.0.0.5"  x1="98.7879" id="line916" x2="98.7879" stroke="#FFFFFF" stroke-linecap="round" fill="none"/>
                    </g>
                </g>
            </g>
        </g>
        <g  transform="translate(4.1164498)">
            <g >
                <g gorn="0.102.10.0.0"  id="g940">
                    <g gorn="0.102.10.0.0.0"  id="g938">
                        <line stroke-width="0.36" y1="136.157" y2="135.023" gorn="0.102.10.0.0.0.0"  x1="34.4129" id="line926" x2="34.4129" stroke="#FFFFFF" stroke-linecap="round" fill="none"/>
                        <line stroke-width="0.36" y1="135.023" y2="135.023" gorn="0.102.10.0.0.0.1"  x1="34.4129" id="line928" x2="51.9877" stroke="#FFFFFF" stroke-linecap="round" fill="none"/>
                        <line stroke-width="0.36" y1="135.023" y2="136.157" gorn="0.102.10.0.0.0.2"  x1="51.9877" id="line930" x2="51.9877" stroke="#FFFFFF" stroke-linecap="round" fill="none"/>
                        <line stroke-width="0.36" y1="144.661" y2="145.795" gorn="0.102.10.0.0.0.3"  x1="34.4129" id="line932" x2="34.4129" stroke="#FFFFFF" stroke-linecap="round" fill="none"/>
                        <line stroke-width="0.36" y1="145.795" y2="145.795" gorn="0.102.10.0.0.0.4"  x1="34.4129" id="line934" x2="51.9877" stroke="#FFFFFF" stroke-linecap="round" fill="none"/>
                        <line stroke-width="0.36" y1="145.795" y2="144.661" gorn="0.102.10.0.0.0.5"  x1="51.9877" id="line936" x2="51.9877" stroke="#FFFFFF" stroke-linecap="round" fill="none"/>
                    </g>
                </g>
            </g>
        </g>
        <g  transform="translate(4.1164498)">
            <g >
                <g gorn="0.102.11.0.0"  id="g1056">
                    <g gorn="0.102.11.0.0.0"  id="g1054">
                        <line stroke-width="0.36" y1="5.5037" y2="5.5037" gorn="0.102.11.0.0.0.0"  x1="110.7073" id="line1034" x2="112.8333" stroke="#FFFFFF" stroke-linecap="round" fill="none"/>
                        <line stroke-width="0.36" y1="5.5037" y2="5.5037" gorn="0.102.11.0.0.0.1"  x1="112.8333" id="line1036" x2="113.1163" stroke="#FFFFFF" stroke-linecap="round" fill="none"/>
                        <line stroke-width="0.36" y1="5.5037" y2="5.5037" gorn="0.102.11.0.0.0.2"  x1="113.1163" id="line1038" x2="116.0933" stroke="#FFFFFF" stroke-linecap="round" fill="none"/>
                        <line stroke-width="0.36" y1="5.5037" y2="8.9143" gorn="0.102.11.0.0.0.3"  x1="116.0933" id="line1040" x2="116.0933" stroke="#FFFFFF" stroke-linecap="round" fill="none"/>
                        <line stroke-width="0.36" y1="8.9143" y2="8.9143" gorn="0.102.11.0.0.0.4"  x1="116.0933" id="line1042" x2="113.1163" stroke="#FFFFFF" stroke-linecap="round" fill="none"/>
                        <line stroke-width="0.36" y1="8.9143" y2="8.9143" gorn="0.102.11.0.0.0.5"  x1="112.8333" id="line1044" x2="110.7073" stroke="#FFFFFF" stroke-linecap="round" fill="none"/>
                        <line stroke-width="0.36" y1="8.9143" y2="5.5037" gorn="0.102.11.0.0.0.6"  x1="110.7073" id="line1046" x2="110.7073" stroke="#FFFFFF" stroke-linecap="round" fill="none"/>
                        <line stroke-width="0.36" y1="5.5037" y2="8.9143" gorn="0.102.11.0.0.0.7"  x1="112.8333" id="line1048" x2="112.8333" stroke="#FFFFFF" stroke-linecap="round" fill="none"/>
                        <line stroke-width="0.36" y1="8.9143" y2="8.9143" gorn="0.102.11.0.0.0.8"  x1="112.8333" id="line1050" x2="113.1163" stroke="#FFFFFF" stroke-linecap="round" fill="none"/>
                        <line stroke-width="0.36" y1="8.9143" y2="5.5037" gorn="0.102.11.0.0.0.9"  x1="113.1163" id="line1052" x2="113.1163" stroke="#FFFFFF" stroke-linecap="round" fill="none"/>
                    </g>
                </g>
            </g>
        </g>
        <path gorn="0.102.12"  d="M9.8767,25.5917L9.8767,25.5917c0.7828,0,1.4173,0.6346,1.4173,1.4173v0c0,0.7828-0.6346,1.4173-1.4173,1.4173h0c-0.7828,0-1.4173-0.6346-1.4173-1.4173v0C8.4594,26.2263,9.094,25.5917,9.8767,25.5917z" id="connector12pin" fill="#9A916C"/>
        <circle stroke-width="1.1027" cx="151.3567" r="1.9687" gorn="0.102.13"  id="connector14pin" cy="43.929" stroke="#9A916C" fill="none"/>
        <circle stroke-width="1.1027" cx="151.3567" r="1.9687" gorn="0.102.14"  id="connector15pin" cy="36.729" stroke="#9A916C" fill="none"/>
        <g  transform="rotate(-90,180.17323,6.6247766)">
            <g >
                <g gorn="0.102.15.0.0"  id="g1148">
                    <g  transform="matrix(-2.535182e-06 -1 1 -2.535182e-06 169.4318 186.798)">
                        <rect y="6.9116" gorn="0.102.15.0.0.0.0"  id="connector16pin" x="177.406" height="3.5433" fill="#9A916C" width="1.4173"/>
                    </g>
                </g>
            </g>
        </g>
        <g  transform="rotate(-90,182.58273,6.6242766)">
            <g >
                <g gorn="0.102.16.0.0"  id="g1151">
                    <g  transform="matrix(-2.535182e-06 -1 1 -2.535182e-06 171.8418 189.208)">
                        <rect y="6.9116" gorn="0.102.16.0.0.0.0"  id="connector17pin" x="179.816" height="3.5433" fill="#9A916C" width="1.4173"/>
                    </g>
                </g>
            </g>
        </g>
        <g  transform="rotate(-90,185.13373,6.6242766)">
            <g >
                <g gorn="0.102.17.0.0"  id="g1154">
                    <g  transform="matrix(-2.535182e-06 -1 1 -2.535182e-06 174.3928 191.759)">
                        <rect y="6.9116" gorn="0.102.17.0.0.0.0"  id="connector18pin" x="182.367" height="3.5433" fill="#9A916C" width="1.4173"/>
                    </g>
                </g>
            </g>
        </g>
        <g  transform="rotate(-90,187.54323,6.6247766)">
            <g >
                <g gorn="0.102.18.0.0"  id="g1157">
                    <g  transform="matrix(-2.535182e-06 -1 1 -2.535182e-06 176.8018 194.168)">
                        <rect y="6.9116" gorn="0.102.18.0.0.0.0"  id="connector19pin" x="184.776" height="3.5433" fill="#9A916C" width="1.4173"/>
                    </g>
                </g>
            </g>
        </g>
        <g  transform="rotate(-90,135.17323,6.6247766)">
            <g >
                <g gorn="0.102.19.0.0"  id="g1160">
                    <g  transform="matrix(-2.535182e-06 -1 1 -2.535182e-06 124.4317 141.798)">
                        <rect y="6.9116" gorn="0.102.19.0.0.0.0"  id="connector20pin" x="132.406" height="3.5433" fill="#9A916C" width="1.4173"/>
                    </g>
                </g>
            </g>
        </g>
        <g  transform="rotate(-90,137.58273,6.6242766)">
            <g >
                <g gorn="0.102.20.0.0"  id="g1163">
                    <g  transform="matrix(-2.535182e-06 -1 1 -2.535182e-06 126.8417 144.208)">
                        <rect y="6.9116" gorn="0.102.20.0.0.0.0"  id="connector21pin" x="134.816" height="3.5433" fill="#9A916C" width="1.4173"/>
                    </g>
                </g>
            </g>
        </g>
        <g  transform="rotate(-90,140.13373,6.6242766)">
            <g >
                <g gorn="0.102.21.0.0"  id="g1166">
                    <g  transform="matrix(-2.535182e-06 -1 1 -2.535182e-06 129.3927 146.759)">
                        <rect y="6.9116" gorn="0.102.21.0.0.0.0"  id="connector22pin" x="137.367" height="3.5433" fill="#9A916C" width="1.4173"/>
                    </g>
                </g>
            </g>
        </g>
        <g  transform="rotate(-90,142.54323,6.6247766)">
            <g >
                <g gorn="0.102.22.0.0"  id="g1169">
                    <g  transform="matrix(-2.535182e-06 -1 1 -2.535182e-06 131.8017 149.168)">
                        <rect y="6.9116" gorn="0.102.22.0.0.0.0"  id="connector23pin" x="139.776" height="3.5433" fill="#9A916C" width="1.4173"/>
                    </g>
                </g>
            </g>
        </g>
        <g  transform="rotate(-90,88.373226,6.6249766)">
            <g >
                <g gorn="0.102.23.0.0"  id="g1172">
                    <g  transform="matrix(-2.535182e-06 -1 1 -2.535182e-06 77.6317 94.9981)">
                        <rect y="6.9116" gorn="0.102.23.0.0.0.0"  id="connector24pin" x="85.6061" height="3.5433" fill="#9A916C" width="1.4173"/>
                    </g>
                </g>
            </g>
        </g>
        <g  transform="rotate(-90,90.782776,6.6246266)">
            <g >
                <g gorn="0.102.24.0.0"  id="g1175">
                    <g  transform="matrix(-2.535182e-06 -1 1 -2.535182e-06 80.0416 97.408)">
                        <rect y="6.9116" gorn="0.102.24.0.0.0.0"  id="connector25pin" x="88.016" height="3.5433" fill="#9A916C" width="1.4173"/>
                    </g>
                </g>
            </g>
        </g>
        <g  transform="rotate(-90,93.333676,6.6246266)">
            <g >
                <g gorn="0.102.25.0.0"  id="g1178">
                    <g  transform="matrix(-2.535182e-06 -1 1 -2.535182e-06 82.5925 99.9589)">
                        <rect y="6.9116" gorn="0.102.25.0.0.0.0"  id="connector26pin" x="90.5669" height="3.5433" fill="#9A916C" width="1.4173"/>
                    </g>
                </g>
            </g>
        </g>
        <g  transform="rotate(-90,95.743126,6.6248766)">
            <g >
                <g gorn="0.102.26.0.0"  id="g1181">
                    <g  transform="matrix(-2.535182e-06 -1 1 -2.535182e-06 85.0016 102.368)">
                        <rect y="6.9116" gorn="0.102.26.0.0.0.0"  id="connector27pin" x="92.976" height="3.5433" fill="#9A916C" width="1.4173"/>
                    </g>
                </g>
            </g>
        </g>
        <g  transform="rotate(-90,41.573226,6.6247766)">
            <g >
                <g gorn="0.102.27.0.0"  id="g1184">
                    <g  transform="matrix(-2.535182e-06 -1 1 -2.535182e-06 30.8318 48.1983)">
                        <rect y="6.9116" gorn="0.102.27.0.0.0.0"  id="connector28pin" x="38.8063" height="3.5433" fill="#9A916C" width="1.4173"/>
                    </g>
                </g>
            </g>
        </g>
        <g  transform="rotate(-90,43.982626,6.6247766)">
            <g >
                <g gorn="0.102.28.0.0"  id="g1187">
                    <g  transform="matrix(-2.535182e-06 -1 1 -2.535182e-06 33.2412 50.6077)">
                        <rect y="6.9116" gorn="0.102.28.0.0.0.0"  id="connector29pin" x="41.2157" height="3.5433" fill="#9A916C" width="1.4173"/>
                    </g>
                </g>
            </g>
        </g>
        <g  transform="rotate(-90,46.533826,6.6247766)">
            <g >
                <g gorn="0.102.29.0.0"  id="g1190">
                    <g  transform="matrix(-2.535182e-06 -1 1 -2.535182e-06 35.7924 53.1589)">
                        <rect y="6.9116" gorn="0.102.29.0.0.0.0"  id="connector30pin" x="43.7669" height="3.5433" fill="#9A916C" width="1.4173"/>
                    </g>
                </g>
            </g>
        </g>
        <g  transform="rotate(-90,48.943226,6.6247766)">
            <g >
                <g gorn="0.102.30.0.0"  id="g1193">
                    <g  transform="matrix(-2.535182e-06 -1 1 -2.535182e-06 38.2019 55.5684)">
                        <rect y="6.9116" gorn="0.102.30.0.0.0.0"  id="connector31pin" x="46.1764" height="3.5433" fill="#9A916C" width="1.4173"/>
                    </g>
                </g>
            </g>
        </g>
        <rect y="138.283" gorn="0.102.31"  id="connector42pin" x="173.5437" height="4.252" fill="#9A916C" width="5.6693"/>
        <rect y="138.283" gorn="0.102.32"  id="connector43pin" x="196.2207" height="4.252" fill="#9A916C" width="5.6693"/>
        <rect y="138.283" gorn="0.102.33"  id="connector44pin" x="126.7437" height="4.252" fill="#9A916C" width="5.6693"/>
        <rect y="138.283" gorn="0.102.34"  id="connector45pin" x="149.4207" height="4.252" fill="#9A916C" width="5.6693"/>
        <rect y="138.283" gorn="0.102.35"  id="connector46pin" x="79.9435" height="4.252" fill="#9A916C" width="5.6693"/>
        <rect y="138.283" gorn="0.102.36"  id="connector47pin" x="102.6206" height="4.252" fill="#9A916C" width="5.6693"/>
        <rect y="138.283" gorn="0.102.37"  id="connector48pin" x="33.1435" height="4.252" fill="#9A916C" width="5.6693"/>
        <rect y="138.283" gorn="0.102.38"  id="connector49pin" x="55.8206" height="4.252" fill="#9A916C" width="5.6693"/>
        <circle stroke-width="1.44" cx="220.1167" r="6.7436" gorn="0.102.39"  id="connector50pin" cy="10.809" stroke="#9A916C" fill="none"/>
        <circle stroke-width="1.44" cx="220.1167" r="6.7436" gorn="0.102.40"  id="connector51pin" cy="140.409" stroke="#9A916C" fill="none"/>
        <circle stroke-width="1.44" cx="14.9167" r="6.7436" gorn="0.102.41"  id="connector52pin" cy="10.809" stroke="#9A916C" fill="none"/>
        <circle stroke-width="1.44" cx="14.9167" r="6.7436" gorn="0.102.42"  id="connector53pin" cy="140.409" stroke="#9A916C" fill="none"/>
        <rect y="6.0751" gorn="0.102.43"  id="connector56pin" x="114.2567" height="2.2677" fill="#9A916C" width="2.2677"/>
        <rect y="6.0751" gorn="0.102.44"  id="connector57pin" x="118.5087" height="2.2677" fill="#9A916C" width="2.2677"/>
        <g  transform="translate(41.62895,136.575)">
            <g >
                <g gorn="0.102.45.0.0"  id="g1299">
                    <path gorn="0.102.45.0.0.0"  d="M4.2453,2.268h-3.955c-0.16,0-0.29-0.13-0.29-0.291V0.29c0-0.16,0.13-0.29,0.29-0.29h3.955c0.16,0,0.29,0.13,0.29,0.29v1.687C4.5353,2.138,4.4053,2.268,4.2453,2.268z" id="path1295" fill="#DCDCDC"/>
                    <rect y="0" gorn="0.102.45.0.0.1"  id="rect1297" x="1.1343" height="2.268" fill="#6E554B" width="2.268"/>
                </g>
            </g>
        </g>
        <g  transform="translate(4.1164498,-25.247687)">
            <g >
                <g gorn="0.102.46.0.0"  id="g3994">
                    <g  transform="scale(-1,1)">
                        <g >
                            <circle cx="-118.4033" r="2.0127" gorn="0.102.46.0.0.0.0.0"  id="connector32pin" cy="178.9623"/>
                        </g>
                    </g>
                    <g  transform="scale(-1,1)">
                        <g >
                            <circle cx="-113.8678" r="2.0127" gorn="0.102.46.0.0.1.0.0"  id="connector6pin" cy="178.9623" fill="#FF0000"/>
                        </g>
                    </g>
                    <g  transform="scale(-1,1)">
                        <g >
                            <circle cx="-109.3324" r="2.0127" gorn="0.102.46.0.0.2.0.0"  id="connector7pin" cy="178.9623" fill="#0000FF"/>
                        </g>
                    </g>
                    <g  transform="scale(-1,1)">
                        <g >
                            <circle cx="-104.797" r="2.0127" gorn="0.102.46.0.0.3.0.0"  id="connector8pin" cy="178.9623" fill="#FFFF00"/>
                        </g>
                    </g>
                </g>
            </g>
        </g>
        <g  transform="translate(41.62895,141.615)">
            <g >
                <g gorn="0.102.47.0.0"  id="g1382">
                    <g  transform="rotate(180,2.2675,1.134)">
                        <g >
                            <g gorn="0.102.47.0.0.0.0.0"  id="g1380">
                                <path gorn="0.102.47.0.0.0.0.0.0"  d="M4.2447,2.268h-3.955c-0.16,0-0.29-0.13-0.29-0.291V0.29c0-0.16,0.13-0.29,0.29-0.29h3.955c0.16,0,0.29,0.13,0.29,0.29v1.687C4.5347,2.138,4.4047,2.268,4.2447,2.268z" id="path1376" fill="#DCDCDC"/>
                                <rect y="0" gorn="0.102.47.0.0.0.0.0.1"  id="rect1378" x="1.1337" height="2.268" fill="#333333" width="2.268"/>
                            </g>
                        </g>
                    </g>
                </g>
            </g>
        </g>
        <g  transform="translate(144.76945,140.715)">
            <g >
                <g gorn="0.102.48.0.0"  id="g1500">
                    <g  transform="rotate(90,2.2675,1.134)">
                        <g >
                            <g gorn="0.102.48.0.0.0.0.0"  id="g1498">
                                <path gorn="0.102.48.0.0.0.0.0.0"  d="M4.245,2.2677H0.29c-0.16,0-0.29-0.13-0.29-0.291v-1.687c0-0.16,0.13-0.29,0.29-0.29h3.955c0.16,0,0.29,0.13,0.29,0.29v1.687C4.535,2.1377,4.405,2.2677,4.245,2.2677z" id="path1494" fill="#DCDCDC"/>
                                <g  transform="matrix(2.535182e-06 1 -1 2.535182e-06 3.4017 -1.1343)">
                                    <rect y="-0.0003" gorn="0.102.48.0.0.0.0.0.1.0"  id="rect1496" x="1.134" height="2.268" fill="#333333" width="2.268"/>
                                </g>
                            </g>
                        </g>
                    </g>
                </g>
            </g>
        </g>
        <g  transform="translate(97.96915,138.555)">
            <g >
                <g gorn="0.102.49.0.0"  id="g1508">
                    <g  transform="rotate(90,2.2675,1.134)">
                        <g >
                            <g gorn="0.102.49.0.0.0.0.0"  id="g1506">
                                <path gorn="0.102.49.0.0.0.0.0.0"  d="M4.245,2.2677H0.29c-0.16,0-0.29-0.13-0.29-0.291v-1.687c0-0.16,0.13-0.29,0.29-0.29h3.955c0.16,0,0.29,0.13,0.29,0.29v1.687C4.535,2.1377,4.405,2.2677,4.245,2.2677z" id="path1502" fill="#DCDCDC"/>
                                <g  transform="matrix(2.535182e-06 1 -1 2.535182e-06 3.4017 -1.1343)">
                                    <rect y="-0.0003" gorn="0.102.49.0.0.0.0.0.1.0"  id="rect1504" x="1.134" height="2.268" fill="#333333" width="2.268"/>
                                </g>
                            </g>
                        </g>
                    </g>
                </g>
            </g>
        </g>
        <g  transform="scale(1,-1)">
            <g >
                <circle cx="163.9569" r="2.7299" gorn="0.102.50.0.0"  id="connector37pin" cy="-154.213" fill="#1E1E1E"/>
            </g>
        </g>
        <g  transform="scale(1,-1)">
            <g >
                <circle cx="171.0431" r="2.7299" gorn="0.102.51.0.0"  id="connector33pin" cy="-154.213" fill="#E20000"/>
            </g>
        </g>
        <g  transform="scale(-1)">
            <g >
                <circle stroke-width="0.1417" cx="-156.8701" r="2.7311" gorn="0.102.52.0.0"  id="connector34pin" cy="-154.213" stroke="#000000" stroke-miterlimit="10" fill="#FFFFFF"/>
            </g>
        </g>
        <g  transform="scale(1,-1)">
            <g >
                <circle cx="63.9184" r="2.7299" gorn="0.102.53.0.0"  id="connector58pin" cy="-154.2937" fill="#1E1E1E"/>
            </g>
        </g>
        <g  transform="scale(1,-1)">
            <g >
                <circle cx="71.0046" r="2.7299" gorn="0.102.54.0.0"  id="connector38pin" cy="-154.2937" fill="#E20000"/>
            </g>
        </g>
        <g  transform="scale(1,-1)">
            <g >
                <circle stroke-width="0.1417" cx="78.0914" r="2.7311" gorn="0.102.55.0.0"  id="connector39pin" cy="-154.2937" stroke="#000000" stroke-miterlimit="10" fill="#FFFFFF"/>
            </g>
        </g>
        <g  transform="translate(179.21245,135.449)">
            <g >
                <g gorn="0.102.56.0.0"  id="tactile_3x6mm">
                    <path gorn="0.102.56.0.0.0"  d="M-2.4333,3.5433h2.3161c0.1432,0,0.2593,0.1135,0.2593,0.2534v2.3278c0,0.1399-0.1161,0.2534-0.2593,0.2534h-2.3161c-0.1432,0-0.2593-0.1135-0.2593-0.2534V3.7967C-2.6926,3.6568-2.5766,3.5433-2.4333,3.5433z" id="rect8120" fill="#B3B3B3"/>
                    <path gorn="0.102.56.0.0.1"  d="M1.4176,0h14.1732c0.7828,0,1.4173,0.7403,1.4173,1.6535v6.6142c0,0.9132-0.6346,1.6535-1.4173,1.6535H1.4176c-0.7828,0-1.4173-0.7403-1.4173-1.6535V1.6535C0.0003,0.7403,0.6348,0,1.4176,0z" id="rect8099" fill="#999999"/>
                    <path gorn="0.102.56.0.0.2"  d="M5.2597,2.8347h6.4889c0.5564,0,1.0075,0.6138,1.0075,1.3709v1.5102c0,0.7571-0.4511,1.3709-1.0075,1.3709H5.2597c-0.5564,0-1.0075-0.6138-1.0075-1.3709V4.2055C4.2522,3.4484,4.7033,2.8347,5.2597,2.8347z" id="rect8103"/>
                    <path gorn="0.102.56.0.0.3"  d="M0.3558,2.126h0.8504c0.1566,0,0.2835,0.1269,0.2835,0.2835v5.1024c0,0.1566-0.1269,0.2835-0.2835,0.2835H0.3558c-0.1566,0-0.2835-0.1269-0.2835-0.2835V2.4095C0.0723,2.2529,0.1992,2.126,0.3558,2.126z" id="rect8107" fill="#4D4D4D"/>
                    <path gorn="0.102.56.0.0.4"  d="M17.1257,3.5433h2.3161c0.1432,0,0.2593,0.1135,0.2593,0.2534v2.3278c0,0.1399-0.1161,0.2534-0.2593,0.2534h-2.3161c-0.1432,0-0.2593-0.1135-0.2593-0.2534V3.7967C16.8664,3.6568,16.9825,3.5433,17.1257,3.5433z" id="rect8131" fill="#B3B3B3"/>
                    <path gorn="0.102.56.0.0.5"  d="M15.8743,2.126h0.8504c0.1566,0,0.2835,0.1269,0.2835,0.2835v5.1024c0,0.1566-0.1269,0.2835-0.2835,0.2835h-0.8504c-0.1566,0-0.2835-0.1269-0.2835-0.2835V2.4095C15.5909,2.2529,15.7178,2.126,15.8743,2.126z" id="rect8118" fill="#4D4D4D"/>
                </g>
            </g>
        </g>
        <g  transform="translate(132.41245,135.449)">
            <g >
                <g gorn="0.102.57.0.0"  id="g1631">
                    <path gorn="0.102.57.0.0.0"  d="M-2.4333,3.5433h2.3161c0.1432,0,0.2593,0.1135,0.2593,0.2534v2.3278c0,0.1399-0.1161,0.2534-0.2593,0.2534h-2.3161c-0.1432,0-0.2593-0.1135-0.2593-0.2534V3.7967C-2.6926,3.6568-2.5766,3.5433-2.4333,3.5433z" id="rect1619" fill="#B3B3B3"/>
                    <path gorn="0.102.57.0.0.1"  d="M1.4176,0h14.1732c0.7828,0,1.4173,0.7403,1.4173,1.6535v6.6142c0,0.9132-0.6346,1.6535-1.4173,1.6535H1.4176c-0.7828,0-1.4173-0.7403-1.4173-1.6535V1.6535C0.0003,0.7403,0.6348,0,1.4176,0z" id="rect1621" fill="#999999"/>
                    <path gorn="0.102.57.0.0.2"  d="M5.2597,2.8347h6.4889c0.5564,0,1.0075,0.6138,1.0075,1.3709v1.5102c0,0.7571-0.4511,1.3709-1.0075,1.3709H5.2597c-0.5564,0-1.0075-0.6138-1.0075-1.3709V4.2055C4.2522,3.4484,4.7033,2.8347,5.2597,2.8347z" id="rect1623"/>
                    <path gorn="0.102.57.0.0.3"  d="M0.3558,2.126h0.8504c0.1566,0,0.2835,0.1269,0.2835,0.2835v5.1024c0,0.1566-0.1269,0.2835-0.2835,0.2835H0.3558c-0.1566,0-0.2835-0.1269-0.2835-0.2835V2.4095C0.0723,2.2529,0.1992,2.126,0.3558,2.126z" id="rect1625" fill="#4D4D4D"/>
                    <path gorn="0.102.57.0.0.4"  d="M17.1257,3.5433h2.3161c0.1432,0,0.2593,0.1135,0.2593,0.2534v2.3278c0,0.1399-0.1161,0.2534-0.2593,0.2534h-2.3161c-0.1432,0-0.2593-0.1135-0.2593-0.2534V3.7967C16.8664,3.6568,16.9825,3.5433,17.1257,3.5433z" id="rect1627" fill="#B3B3B3"/>
                    <path gorn="0.102.57.0.0.5"  d="M15.8743,2.126h0.8504c0.1566,0,0.2835,0.1269,0.2835,0.2835v5.1024c0,0.1566-0.1269,0.2835-0.2835,0.2835h-0.8504c-0.1566,0-0.2835-0.1269-0.2835-0.2835V2.4095C15.5909,2.2529,15.7178,2.126,15.8743,2.126z" id="rect1629" fill="#4D4D4D"/>
                </g>
            </g>
        </g>
        <g  transform="translate(85.61255,135.449)">
            <g >
                <g gorn="0.102.58.0.0"  id="g1651">
                    <path gorn="0.102.58.0.0.0"  d="M-2.4334,3.5433h2.3161c0.1432,0,0.2593,0.1135,0.2593,0.2534v2.3278c0,0.1399-0.1161,0.2534-0.2593,0.2534h-2.3161c-0.1432,0-0.2593-0.1135-0.2593-0.2534V3.7967C-2.6926,3.6568-2.5766,3.5433-2.4334,3.5433z" id="rect1639" fill="#B3B3B3"/>
                    <path gorn="0.102.58.0.0.1"  d="M1.4176,0h14.1732c0.7828,0,1.4173,0.7403,1.4173,1.6535v6.6142c0,0.9132-0.6346,1.6535-1.4173,1.6535H1.4176c-0.7828,0-1.4173-0.7403-1.4173-1.6535V1.6535C0.0003,0.7403,0.6348,0,1.4176,0z" id="rect1641" fill="#999999"/>
                    <path gorn="0.102.58.0.0.2"  d="M5.2597,2.8347h6.4889c0.5564,0,1.0075,0.6138,1.0075,1.3709v1.5102c0,0.7571-0.4511,1.3709-1.0075,1.3709H5.2597c-0.5564,0-1.0075-0.6138-1.0075-1.3709V4.2055C4.2522,3.4484,4.7033,2.8347,5.2597,2.8347z" id="rect1643"/>
                    <path gorn="0.102.58.0.0.3"  d="M0.3558,2.126h0.8504c0.1566,0,0.2835,0.1269,0.2835,0.2835v5.1024c0,0.1566-0.1269,0.2835-0.2835,0.2835H0.3558c-0.1566,0-0.2835-0.1269-0.2835-0.2835V2.4095C0.0723,2.2529,0.1992,2.126,0.3558,2.126z" id="rect1645" fill="#4D4D4D"/>
                    <path gorn="0.102.58.0.0.4"  d="M17.1257,3.5433h2.3161c0.1432,0,0.2593,0.1135,0.2593,0.2534v2.3278c0,0.1399-0.1161,0.2534-0.2593,0.2534h-2.3161c-0.1432,0-0.2593-0.1135-0.2593-0.2534V3.7967C16.8664,3.6568,16.9825,3.5433,17.1257,3.5433z" id="rect1647" fill="#B3B3B3"/>
                    <path gorn="0.102.58.0.0.5"  d="M15.8743,2.126h0.8504c0.1566,0,0.2835,0.1269,0.2835,0.2835v5.1024c0,0.1566-0.1269,0.2835-0.2835,0.2835h-0.8504c-0.1566,0-0.2835-0.1269-0.2835-0.2835V2.4095C15.5909,2.2529,15.7178,2.126,15.8743,2.126z" id="rect1649" fill="#4D4D4D"/>
                </g>
            </g>
        </g>
        <g  transform="translate(38.81255,135.449)">
            <g >
                <g gorn="0.102.59.0.0"  id="g1671">
                    <path gorn="0.102.59.0.0.0"  d="M-2.4334,3.5433h2.3161c0.1432,0,0.2593,0.1135,0.2593,0.2534v2.3278c0,0.1399-0.1161,0.2534-0.2593,0.2534h-2.3161c-0.1432,0-0.2593-0.1135-0.2593-0.2534V3.7967C-2.6926,3.6568-2.5766,3.5433-2.4334,3.5433z" id="rect1659" fill="#B3B3B3"/>
                    <path gorn="0.102.59.0.0.1"  d="M1.4176,0h14.1732c0.7828,0,1.4173,0.7403,1.4173,1.6535v6.6142c0,0.9132-0.6346,1.6535-1.4173,1.6535H1.4176c-0.7828,0-1.4173-0.7403-1.4173-1.6535V1.6535C0.0003,0.7403,0.6348,0,1.4176,0z" id="rect1661" fill="#999999"/>
                    <path gorn="0.102.59.0.0.2"  d="M5.2597,2.8347h6.4889c0.5564,0,1.0075,0.6138,1.0075,1.3709v1.5102c0,0.7571-0.4511,1.3709-1.0075,1.3709H5.2597c-0.5564,0-1.0075-0.6138-1.0075-1.3709V4.2055C4.2522,3.4484,4.7033,2.8347,5.2597,2.8347z" id="rect1663"/>
                    <path gorn="0.102.59.0.0.3"  d="M0.3558,2.126h0.8504c0.1566,0,0.2835,0.1269,0.2835,0.2835v5.1024c0,0.1566-0.1269,0.2835-0.2835,0.2835H0.3558c-0.1566,0-0.2835-0.1269-0.2835-0.2835V2.4095C0.0723,2.2529,0.1992,2.126,0.3558,2.126z" id="rect1665" fill="#4D4D4D"/>
                    <path gorn="0.102.59.0.0.4"  d="M17.1257,3.5433h2.3161c0.1432,0,0.2593,0.1135,0.2593,0.2534v2.3278c0,0.1399-0.1161,0.2534-0.2593,0.2534h-2.3161c-0.1432,0-0.2593-0.1135-0.2593-0.2534V3.7967C16.8664,3.6568,16.9825,3.5433,17.1257,3.5433z" id="rect1667" fill="#B3B3B3"/>
                    <path gorn="0.102.59.0.0.5"  d="M15.8743,2.126h0.8504c0.1566,0,0.2835,0.1269,0.2835,0.2835v5.1024c0,0.1566-0.1269,0.2835-0.2835,0.2835h-0.8504c-0.1566,0-0.2835-0.1269-0.2835-0.2835V2.4095C15.5909,2.2529,15.7178,2.126,15.8743,2.126z" id="rect1669" fill="#4D4D4D"/>
                </g>
            </g>
        </g>
        <g  transform="translate(115.24945,6.074993)">
            <g >
                <g gorn="0.102.60.0.0"  id="als-pt19-315c">
                    <g gorn="0.102.60.0.0.0"  id="g1681">
                        <path gorn="0.102.60.0.0.0.0"  d="M4.2523,2.268h-3.969c-0.156,0-0.283-0.127-0.283-0.284V0.283C0.0003,0.127,0.1273,0,0.2833,0h3.969c0.157,0,0.283,0.127,0.283,0.283v1.701C4.5353,2.141,4.4093,2.268,4.2523,2.268z" id="path1673" fill="#DCDCDC"/>
                        <rect y="0" gorn="0.102.60.0.0.0.1"  id="rect1675" x="0.5673" height="2.268" fill="#FFFFFF" width="3.402"/>
                        <rect y="0.283" gorn="0.102.60.0.0.0.2"  id="rect1677" x="0.8503" height="1.701" width="1.701"/>
                        <circle cx="1.7013" r="0.354" gorn="0.102.60.0.0.0.3"  id="circle1679" cy="1.134" fill="#FFFFFF"/>
                    </g>
                </g>
            </g>
        </g>
        <g  transform="rotate(-90)">
            <g >
                <circle cx="-121.2968" r="2.3326" gorn="0.102.61.0.0"  id="connector5pin" cy="2.3326" fill="#1E1E1E"/>
            </g>
        </g>
        <g  transform="rotate(-90)">
            <g >
                <circle cx="-112.7928" r="2.3326" gorn="0.102.62.0.0"  id="connector59pin" cy="2.3326" fill="#E20000"/>
            </g>
        </g>
        <rect y="23.8019" gorn="0.102.63"  id="rect503" x="5.5556" height="104.0313" fill="#FAFAFA" width="224.0559"/>
        <path gorn="0.102.64"  d="M10.2856,43.8178h7.9288c2.7397,0,4.9606,2.004,4.9606,4.4761v76.755l204.1002,0.4256V26.5587L10.2856,26.133V43.8178z" id="path505" fill="#DCDCDC"/>
        <rect y="29.2098" stroke-width="0.5669" gorn="0.102.65"  id="rect509" x="26.5766" stroke="#000000" height="92.9459" stroke-miterlimit="10" fill="none" width="198.019"/>
        <ellipse cx="20.1319" gorn="0.102.66"  id="ellipse511" ry="2.2381" cy="34.9332" rx="2.4803" fill="#FAFAFA"/>
        <g  transform="matrix(0,-1.0000022,1.0000022,0,-55.417214,85.371336)">
            <g >
                <g gorn="0.102.67.0.0"  id="g515">
                    <g  transform="matrix(-2.535182e-06 -1 1 -2.535182e-06 -58.0494 76.3851)">
                        <rect y="54.4283" gorn="0.102.67.0.0.0.0"  id="rect513" x="7.7505" height="25.5777" fill="#DCDCDC" width="2.8346"/>
                    </g>
                </g>
            </g>
        </g>
        <g  transform="matrix(0,1.0000022,-1.0000022,0,71.550065,74.502712)">
            <g >
                <g gorn="0.102.68.0.0"  id="g519">
                    <g  transform="matrix(2.535182e-06 1 -1 2.535182e-06 68.9175 65.5158)">
                        <rect y="49.3123" gorn="0.102.68.0.0.0.0"  id="rect517" x="0" height="35.8088" fill="#E6AA50" width="3.4016"/>
                    </g>
                </g>
            </g>
        </g>
        <g  transform="matrix(-0.99045683,0,0,-0.99045683,52.903675,13.555438)">
            <g >
                <g gorn="0.102.69.0.0"  id="Layer_2_1_">
                    <g gorn="0.102.69.0.0.0"  id="g17">
                        <rect y="5.3871" gorn="0.102.69.0.0.0.0"  id="rect3" x="8.9288" height="0.849" fill="#DCDCDC" width="0.8501"/>
                        <rect y="5.3844" gorn="0.102.69.0.0.0.1"  id="rect5" x="1.5589" height="0.8518" fill="#DCDCDC" width="0.8501"/>
                        <rect y="5.3871" gorn="0.102.69.0.0.0.2"  id="rect7" x="6.5195" height="0.849" fill="#DCDCDC" width="0.8501"/>
                        <rect y="5.3871" gorn="0.102.69.0.0.0.3"  id="rect9" x="3.9683" height="0.849" fill="#DCDCDC" width="0.8501"/>
                        <polygon gorn="0.102.69.0.0.0.4"  id="polygon11" points="10.7714,5.6692 0.5666,5.6692 -0.0003,2.2677 -0.0003,0 11.3383,0 11.3383,2.2677 " fill="#F0F0F0"/>
                        <g  transform="rotate(180,5.6693,1.13385)">
                            <g >
                                <rect y="0" gorn="0.102.69.0.0.0.5.0.0"  id="rect13" x="0.0003" height="2.2677" fill="#E6E6E6" width="11.3386"/>
                            </g>
                        </g>
                        <g  transform="rotate(180,1.13385,1.13385)">
                            <g >
                                <rect y="0" gorn="0.102.69.0.0.0.6.0.0"  id="rect15" x="0.0003" height="2.2677" fill="#B4B4B4" width="2.2677"/>
                            </g>
                        </g>
                    </g>
                </g>
            </g>
        </g>
        <path gorn="0.102.70"  d="M109.9325,82.1881c7.224,0,7.224,0,7.224,0c0,4.5971,0,4.5971,0,4.5971c-1.806,1.1493-4.1045,1.806-6.7314,1.806c-5.7463,0-9.6866-4.2687-9.6866-10.1792l0,0c0-5.5821,4.1045-10.1792,9.1941-10.1792c3.7762,0,5.9105,1.3134,8.3732,3.2836c4.5971-5.2538,4.5971-5.2538,4.5971-5.2538c-3.4478-2.9552-6.8956-4.4329-12.6419-4.4329c-9.8508,0-16.9106,7.3881-16.9106,16.5822c0,0.1642,0,0.1642,0,0.1642c0,9.5225,6.8956,16.5822,16.9106,16.5822c5.9105,0,10.3434-2.2985,13.7912-5.0896c0-14.1195,0-14.1195,0-14.1195c-14.1195,0-14.1195,0-14.1195,0L109.9325,82.1881z" id="path4035"/>
        <path gorn="0.102.71"  d="M43.7677,75.9492l-7.7165-13.627h-7.7165v32.1794h6.8956V73.6507l8.5374,13.627l8.209-13.7912v21.0151h7.0598V62.3222h-7.5523L43.7677,75.9492z" id="path4037"/>
        <path gorn="0.102.72"  d="M83.0069,62.3222c-13.7912,0-13.7912,0-13.7912,0c-3.9403,0-7.0598,3.2836-7.0598,7.2239c0,15.7613,0,15.7613,0,15.7613c7.0598,0,7.0598,0,7.0598,0c0-13.2986,0-13.2986,0-13.2986c0-1.4776,1.1493-2.6269,2.4627-2.6269c8.8658,0,8.8658,0,8.8658,0c1.4776,0,2.6269,1.1493,2.6269,2.6269c0,13.2986,0,13.2986,0,13.2986c7.0598,0,7.0598,0,7.0598,0c0-15.7613,0-15.7613,0-15.7613C90.2308,65.6058,86.9472,62.3222,83.0069,62.3222z" id="path4039"/>
        <path gorn="0.102.73"  d="M62.156,94.5016h7.0598v-6.7314H62.156L62.156,94.5016z" id="path4041"/>
        <path gorn="0.102.74"  d="M83.1711,94.5016h7.0598v-6.7314h-7.0598V94.5016z" id="path4043"/>
        <path gorn="0.102.75"  d="M70.8575,80.2179h10.5076v-2.4627H70.8575V80.2179z" id="path4045"/>
        <path gorn="0.102.76"  d="M127.0073,68.8894h11.821v25.6122h7.2239V68.8894h11.6568v-6.5672h-30.7017L127.0073,68.8894z" id="path4047"/>
        <path gorn="0.102.77"  d="M208.7692,75.9492c0,6.2389,0,6.2389,0,6.2389c7.0598,0,7.0598,0,7.0598,0c0,4.5971,0,4.5971,0,4.5971c-1.806,1.1493-4.1045,1.806-6.5672,1.806c-5.7463,0-9.8508-4.2687-9.8508-10.1792l0,0c0-5.5821,4.1045-10.1792,9.1941-10.1792c3.7761,0,6.0747,1.3134,8.5374,3.2836c4.4329-5.2538,4.4329-5.2538,4.4329-5.2538c-3.2836-2.9552-6.8956-4.4329-12.6419-4.4329c-9.8508,0-16.9106,7.3881-16.9106,16.5822c0,0.1642,0,0.1642,0,0.1642c0,9.5225,6.8956,16.5822,16.9106,16.5822c5.9105,0,10.5076-2.2985,13.7912-5.0896c0-14.1195,0-14.1195,0-14.1195H208.7692z" id="path4049"/>
        <path gorn="0.102.78"  d="M181.6794,62.3222c-13.627,0-13.627,0-13.627,0c-3.9403,0-7.2239,3.2836-7.2239,7.2239c0,24.9554,0,24.9554,0,24.9554c7.0598,0,7.0598,0,7.0598,0c0-14.2837,0-14.2837,0-14.2837c13.9554,0,13.9554,0,13.9554,0c0,14.2837,0,14.2837,0,14.2837c7.0598,0,7.0598,0,7.0598,0c0-24.9554,0-24.9554,0-24.9554C188.9033,65.6058,185.7839,62.3222,181.6794,62.3222 M181.8436,77.7552c-13.9554,0-13.9554,0-13.9554,0c0-5.7463,0-5.7463,0-5.7463c0-1.4776,1.1493-2.6269,2.6269-2.6269c8.8658,0,8.8658,0,8.8658,0c1.3134,0,2.4627,1.1493,2.4627,2.6269V77.7552z" id="path4051"/>
        <path gorn="0.102.79"  d="M179.8734,72.6656c-0.4925,0-0.8209,0.3284-0.8209,0.8209c0,2.2985,0,2.2985,0,2.2985c0,0.3284,0.3283,0.6567,0.8209,0.6567c0.3284,0,0.6567-0.3284,0.6567-0.6567c0-2.2985,0-2.2985,0-2.2985C180.5301,72.9939,180.2018,72.6656,179.8734,72.6656z" id="path4053"/>
        <path gorn="0.102.80"  d="M179.8734,81.5313c-0.4925,0-0.8209,0.3284-0.8209,0.8209c0,4.9254,0,4.9254,0,4.9254c0,0.4925,0.3283,0.8209,0.8209,0.8209c0.3284,0,0.6567-0.3284,0.6567-0.8209c0-4.9254,0-4.9254,0-4.9254C180.5301,81.8597,180.2018,81.5313,179.8734,81.5313z" id="path4055"/>
        <g  transform="matrix(-0.99045683,0,0,-0.99045683,99.736941,13.555438)">
            <g >
                <g gorn="0.102.81.0.0"  id="g4176">
                    <g gorn="0.102.81.0.0.0"  id="g4174">
                        <rect y="5.3871" gorn="0.102.81.0.0.0.0"  id="rect4160" x="8.9288" height="0.849" fill="#DCDCDC" width="0.8501"/>
                        <rect y="5.3844" gorn="0.102.81.0.0.0.1"  id="rect4162" x="1.5589" height="0.8518" fill="#DCDCDC" width="0.8501"/>
                        <rect y="5.3871" gorn="0.102.81.0.0.0.2"  id="rect4164" x="6.5195" height="0.849" fill="#DCDCDC" width="0.8501"/>
                        <rect y="5.3871" gorn="0.102.81.0.0.0.3"  id="rect4166" x="3.9683" height="0.849" fill="#DCDCDC" width="0.8501"/>
                        <polygon gorn="0.102.81.0.0.0.4"  id="polygon4168" points="11.3383,0 11.3383,2.2677 10.7714,5.6692 0.5666,5.6692 -0.0003,2.2677 -0.0003,0 " fill="#F0F0F0"/>
                        <g  transform="rotate(180,5.6693,1.13385)">
                            <g >
                                <rect y="0" gorn="0.102.81.0.0.0.5.0.0"  id="rect4170" x="0.0003" height="2.2677" fill="#E6E6E6" width="11.3386"/>
                            </g>
                        </g>
                        <g  transform="rotate(180,1.13385,1.13385)">
                            <g >
                                <rect y="0" gorn="0.102.81.0.0.0.6.0.0"  id="rect4172" x="0.0003" height="2.2677" fill="#B4B4B4" width="2.2677"/>
                            </g>
                        </g>
                    </g>
                </g>
            </g>
        </g>
        <g  transform="matrix(-0.99045683,0,0,-0.99045683,146.59253,13.555438)">
            <g >
                <g gorn="0.102.82.0.0"  id="g4194">
                    <g gorn="0.102.82.0.0.0"  id="g4192">
                        <rect y="5.3871" gorn="0.102.82.0.0.0.0"  id="rect4178" x="8.9288" height="0.849" fill="#DCDCDC" width="0.8501"/>
                        <rect y="5.3844" gorn="0.102.82.0.0.0.1"  id="rect4180" x="1.5589" height="0.8518" fill="#DCDCDC" width="0.8501"/>
                        <rect y="5.3871" gorn="0.102.82.0.0.0.2"  id="rect4182" x="6.5195" height="0.849" fill="#DCDCDC" width="0.8501"/>
                        <rect y="5.3871" gorn="0.102.82.0.0.0.3"  id="rect4184" x="3.9683" height="0.849" fill="#DCDCDC" width="0.8501"/>
                        <polygon gorn="0.102.82.0.0.0.4"  id="polygon4186" points="11.3383,2.2677 10.7714,5.6692 0.5666,5.6692 -0.0003,2.2677 -0.0003,0 11.3383,0 " fill="#F0F0F0"/>
                        <g  transform="rotate(180,5.6693,1.13385)">
                            <g >
                                <rect y="0" gorn="0.102.82.0.0.0.5.0.0"  id="rect4188" x="0.0003" height="2.2677" fill="#E6E6E6" width="11.3386"/>
                            </g>
                        </g>
                        <g  transform="rotate(180,1.13385,1.13385)">
                            <g >
                                <rect y="0" gorn="0.102.82.0.0.0.6.0.0"  id="rect4190" x="0.0003" height="2.2677" fill="#B4B4B4" width="2.2677"/>
                            </g>
                        </g>
                    </g>
                </g>
            </g>
        </g>
        <g  transform="matrix(-0.99045683,0,0,-0.99045683,191.54163,13.555438)">
            <g >
                <g gorn="0.102.83.0.0"  id="g4212">
                    <g gorn="0.102.83.0.0.0"  id="g4210">
                        <rect y="5.3871" gorn="0.102.83.0.0.0.0"  id="rect4196" x="8.9288" height="0.849" fill="#DCDCDC" width="0.8501"/>
                        <rect y="5.3844" gorn="0.102.83.0.0.0.1"  id="rect4198" x="1.5589" height="0.8518" fill="#DCDCDC" width="0.8501"/>
                        <rect y="5.3871" gorn="0.102.83.0.0.0.2"  id="rect4200" x="6.5195" height="0.849" fill="#DCDCDC" width="0.8501"/>
                        <rect y="5.3871" gorn="0.102.83.0.0.0.3"  id="rect4202" x="3.9683" height="0.849" fill="#DCDCDC" width="0.8501"/>
                        <polygon gorn="0.102.83.0.0.0.4"  id="polygon4204" points="0.5666,5.6692 -0.0003,2.2677 -0.0003,0 11.3383,0 11.3383,2.2677 10.7714,5.6692 " fill="#F0F0F0"/>
                        <g  transform="rotate(180,5.6693,1.13385)">
                            <g >
                                <rect y="0" gorn="0.102.83.0.0.0.5.0.0"  id="rect4206" x="0.0003" height="2.2677" fill="#E6E6E6" width="11.3386"/>
                            </g>
                        </g>
                        <g  transform="rotate(180,1.13385,1.13385)">
                            <g >
                                <rect y="0" gorn="0.102.83.0.0.0.6.0.0"  id="rect4208" x="0.0003" height="2.2677" fill="#B4B4B4" width="2.2677"/>
                            </g>
                        </g>
                    </g>
                </g>
            </g>
        </g>
    </g>
</svg>
